<?xml version="1.0" encoding="UTF-8"?>
<svg version="1.1" xmlns="http://www.w3.org/2000/svg" width="1200" height="1200">
<path d="M0 0 C9.56842123 2.62641861 18.8225145 6.1368051 28.125 9.5625 C29.93113747 10.22538233 31.73729019 10.88822311 33.54345703 11.55102539 C50.4259089 17.75559528 67.26464601 24.07650839 84.10099792 30.40484619 C95.82982471 34.81334294 107.56718398 39.19813879 119.3125 43.5625 C140.40458098 51.40175937 161.48695195 59.26694006 182.56811523 67.13549805 C184.73668542 67.94491306 186.90525603 68.75432694 189.07382774 69.56373787 C190.5325108 70.1081887 191.99119126 70.65264647 193.44986916 71.19711113 C203.93682729 75.11140597 214.42480907 79.02294673 224.91350555 82.93258095 C229.4017754 84.60566965 233.88988113 86.27919855 238.37798691 87.95272732 C241.92110095 89.27383926 245.46431934 90.59466964 249.0078125 91.9147644 C252.33663426 93.15488598 255.66514941 94.39582742 258.99347305 95.63728523 C260.73208302 96.28556107 262.47099411 96.93302913 264.20993042 97.58042908 C265.33545319 98.00038651 266.46097595 98.42034393 267.62060547 98.85302734 C268.23633769 99.06912407 268.85206991 99.28522079 269.48646069 99.50786591 C273.62385608 100.98988177 277.48129132 102.7315366 281.3948822 104.7346344 C305.60982536 116.37084572 331.61959402 114.84739818 357.93050981 114.90569091 C362.06124874 114.91581432 366.19172163 114.94506693 370.32233238 114.97817421 C384.1040405 115.08623984 397.88483035 115.14652074 411.66696326 115.14793297 C412.40439712 115.1480189 413.14183098 115.14810483 413.90161133 115.14819336 C414.64000253 115.14826829 415.37839373 115.14834323 416.13916042 115.14842043 C427.27299437 115.1523663 438.40281555 115.25245775 449.53540039 115.41479492 C538.04134868 118.17847755 538.04134868 118.17847755 621.30282593 91.88851929 C628.74738791 88.01876868 636.50101667 85.21173996 644.41451836 82.46863556 C647.84976016 81.26807711 651.25510088 79.9892214 654.66357422 78.71508789 C655.95407943 78.23662667 657.24474943 77.75860969 658.5355835 77.28103638 C665.7673413 74.60267609 672.99697581 71.91858902 680.2265625 69.234375 C680.94758274 68.96668871 681.66860298 68.69900242 682.41147232 68.42320442 C702.2367965 61.06182604 722.03615442 53.63141138 741.83306885 46.1940155 C750.79303125 42.82802678 759.75440253 39.46580865 768.71642685 36.10531425 C771.07254532 35.22181899 773.42862482 34.33821985 775.78469849 33.4546051 C782.85201449 30.80425121 789.91961232 28.1546582 796.98846626 25.50840855 C800.75810581 24.09720523 804.52754498 22.68546734 808.296875 21.2734375 C809.38982187 20.86403584 809.38982187 20.86403584 810.50484848 20.44636345 C819.79130494 16.96668198 829.0659677 13.45803738 838.328125 9.9140625 C841.1204041 8.84987323 843.91294282 7.78636838 846.70556641 6.7230835 C849.17014293 5.78054024 851.63000795 4.82641346 854.08984375 3.87158203 C855.52321109 3.32525196 856.95678847 2.77947249 858.390625 2.234375 C859.58719727 1.77256836 860.78376953 1.31076172 862.01660156 0.83496094 C865.08997625 -0.02518157 866.13996713 -0.2548691 869 1 C870.13136101 3.04335022 870.13136101 3.04335022 871.03512573 5.78930664 C871.3853479 6.826297 871.73557007 7.86328735 872.09640503 8.93170166 C872.46532867 10.07959167 872.83425232 11.22748169 873.21435547 12.41015625 C873.61495178 13.61194519 874.0155481 14.81373413 874.42828369 16.05194092 C875.52996259 19.35809533 876.61114418 22.67064093 877.68900824 25.98462296 C878.82461744 29.46402201 879.97920426 32.93711002 881.13186646 36.41088867 C883.31931307 43.0126604 885.49015312 49.61976711 887.65489399 56.2290144 C890.3359635 64.412309 893.03654413 72.58913512 895.73828125 80.765625 C896.6912076 83.64961966 897.64404323 86.53364426 898.59671021 89.41772461 C898.8283887 90.11906997 899.0600672 90.82041533 899.29876626 91.54301357 C900.65919401 95.66306982 902.01588894 99.7843301 903.36872256 103.9068861 C904.0095754 105.85941961 904.65143627 107.81161953 905.29342842 109.76377869 C906.10285922 112.22847396 906.90929958 114.69415374 907.71244621 117.16090393 C909.36646931 122.21086067 911.04480563 127.2237708 913.0010376 132.16552734 C913.29627886 132.92604904 913.59152012 133.68657074 913.89570808 134.47013855 C914.64585066 136.36870595 915.43156768 138.25312386 916.22146606 140.13549805 C917.35110915 145.74284248 916.18918489 150.46381281 915 156 C914.673538 157.62712669 914.673538 157.62712669 914.3404808 159.28712463 C913.61353266 162.88242361 912.85701661 166.47057524 912.0949707 170.05859375 C911.80710147 171.42326358 911.51948063 172.78798584 911.23208618 174.15275574 C910.61844142 177.06502143 910.00339011 179.97698508 909.38729286 182.88873291 C908.41324008 187.49386744 907.44440835 192.10009088 906.47660828 196.70654297 C903.72599484 209.79583828 900.97222486 222.88445521 898.20483398 235.97021484 C896.67221783 243.21748478 895.14584219 250.46603899 893.62652653 257.71610928 C892.82372815 261.54564348 892.01765493 265.37442407 891.20382118 269.20162964 C890.4403673 272.79197116 889.68503377 276.38392348 888.93594742 279.9772892 C888.527806 281.92427774 888.1108929 283.86942102 887.69374084 285.8144989 C887.33412262 287.55108513 887.33412262 287.55108513 886.96723938 289.32275391 C886.64896919 290.83139511 886.64896919 290.83139511 886.32426929 292.37051392 C885.99885371 295.00929526 885.99980943 296.55127384 887 299 C889.05164892 300.78215266 891.0490593 302.3650555 893.25 303.9375 C897.5193798 307.0411952 901.35559588 310.17063552 905 314 C901.68898021 318.65425004 897.74947502 321.68066822 893.1875 325 C892.15786133 325.76183594 892.15786133 325.76183594 891.10742188 326.5390625 C886.77119321 329.7389285 882.39177118 332.87696272 878 336 C879.53924429 340.13906545 882.22749781 341.90953512 885.75 344.4375 C889.95881146 347.49599524 894.05657508 350.60427299 898 354 C897.58199718 358.37373678 894.68498947 360.4753976 891.5625 363.1875 C891.0255249 363.66582275 890.4885498 364.14414551 889.93530273 364.63696289 C888.83093749 365.62005172 887.72357788 366.5997869 886.61328125 367.57617188 C884.23974528 369.67097541 881.90427904 371.8073275 879.5625 373.9375 C876.46061631 376.74546578 873.28599971 379.40944996 870 382 C876.55104759 387.46076436 876.55104759 387.46076436 883.625 392.1875 C886 394 886 394 886.45703125 396.26171875 C885.82275656 400.06194573 883.6934454 402.00444162 881.0625 404.625 C880.04179894 405.68643057 879.02360832 406.75028038 878.0078125 407.81640625 C877.24259277 408.61522217 877.24259277 408.61522217 876.46191406 409.43017578 C874.33485755 411.71423947 872.38750315 414.12674338 870.4375 416.5625 C866.63261483 421.28978158 862.60592988 425.75627582 858.49609375 430.21875 C855.16258934 433.93307729 852.02937726 437.7927195 848.91015625 441.6875 C847.34653524 443.58047267 845.74784178 445.28399336 844 447 C846.08516097 454.98830022 848.5060672 462.82555638 851.10546875 470.66015625 C851.7125213 472.50262726 852.31956975 474.34509963 852.92645168 476.18762684 C853.56888872 478.13665212 854.21258979 480.08525585 854.85662842 482.03375244 C857.13737936 488.93533094 859.40701076 495.8405693 861.67578125 502.74609375 C861.90480133 503.44296295 862.13382141 504.13983215 862.36978149 504.8578186 C866.60794078 517.75814949 870.76026236 530.68476663 874.875 543.625 C882.07947569 566.27443401 889.48736581 588.85557256 896.93082619 611.42735195 C897.85559969 614.23208892 898.77953276 617.03710245 899.70343399 619.84212685 C900.33493875 621.75789989 900.96796076 623.67317258 901.6010437 625.58842468 C902.37176617 627.92746894 903.13648319 630.26850285 903.89440918 632.61172485 C904.6446869 634.91108126 905.41807092 637.20300128 906.21203613 639.48764038 C906.5884021 640.60893341 906.96476807 641.73022644 907.35253906 642.88549805 C907.69351624 643.87140427 908.03449341 644.85731049 908.38580322 645.87309265 C909.6749371 652.43613943 907.70506529 658.67685964 905.82055664 664.95703125 C905.59829533 665.71597561 905.37603401 666.47491997 905.14703751 667.25686264 C904.40731503 669.7771884 903.65876081 672.2947995 902.91015625 674.8125 C902.37659645 676.62364221 901.84358531 678.43494613 901.31108093 680.24639893 C899.86919449 685.14560689 898.4196341 690.04251409 896.96867371 694.93904114 C895.44824326 700.07489424 893.93496869 705.212855 892.42089844 710.35058594 C889.57602905 720.00006166 886.72480029 729.64764522 883.8707943 739.29442215 C881.67408017 746.71978311 879.47945947 754.14575918 877.28662109 761.57226562 C876.98516017 762.59322578 876.68369925 763.61418594 876.37310314 764.66608429 C875.76996843 766.70879782 875.16684532 768.75151478 874.56373405 770.79423523 C870.87603201 783.28420494 867.18750036 795.77392616 863.49243164 808.26171875 C858.2941218 825.83129012 853.10472501 843.40294113 848 861 C843.44716693 862.37464369 839.89561849 861.47155312 835.45947266 860.19946289 C834.70911932 859.99382501 833.95876598 859.78818712 833.18567467 859.57631779 C830.67545481 858.8855349 828.16992192 858.17907917 825.6640625 857.47265625 C823.86867769 856.97525307 822.07301624 856.4788475 820.27709961 855.98336792 C815.4059402 854.63658181 810.53861456 853.27638843 805.67182159 851.91392136 C800.56910291 850.48798829 795.46289603 849.0746654 790.35693359 847.66040039 C781.85095628 845.30302858 773.34682915 842.93909151 764.84375 840.57128906 C752.44289382 837.11905917 740.0351632 833.6920402 727.625 830.2734375 C726.64790447 830.00424688 725.67080894 829.73505627 724.66410446 829.45770836 C720.79132426 828.39078381 716.91852107 827.32394283 713.04566002 826.25731182 C704.92858535 824.02165986 696.81248333 821.78249614 688.6968689 819.54154968 C685.39560394 818.63003165 682.09402246 817.71967492 678.79214478 816.81037903 C671.98950794 814.93620084 665.18830699 813.05799958 658.39715767 811.14254284 C655.67659411 810.37544465 652.95483027 809.61265758 650.23298264 808.85013008 C648.39778107 808.33380562 646.56452855 807.810569 644.73135376 807.28709412 C643.10162125 806.83089439 643.10162125 806.83089439 641.43896484 806.36547852 C640.50241058 806.09993668 639.56585632 805.83439484 638.60092163 805.56080627 C635.92284912 804.98336486 633.72758688 804.73206634 631 805 C628.59380983 806.76277668 626.49128922 808.49108755 624.3125 810.5 C623.06362431 811.61194114 621.8136195 812.72261538 620.5625 813.83203125 C619.9540625 814.37682129 619.345625 814.92161133 618.71875 815.48291016 C615.7068761 818.14140226 612.54825184 820.60745655 609.39453125 823.09375 C606.89386596 825.0844917 604.45023083 827.13510635 602 829.1875 C589.93474536 839.06677451 576.94689171 847.78058756 564.0625 856.54296875 C558.45146614 860.36393188 552.88146725 864.24308611 547.3125 868.125 C540.65478324 872.76304044 533.99590173 877.39901772 527.3125 882 C526.73862549 882.39590332 526.16475098 882.79180664 525.57348633 883.19970703 C524.44125542 883.97780262 523.30242127 884.74638323 522.15696144 885.50486946 C520.57103318 886.60417969 519.03030144 887.76941754 517.51866722 888.96883965 C509.43841785 895.03768835 503.09408826 896.17019289 493.18212891 896.06689453 C491.73507703 896.08104643 490.28805473 896.09855047 488.84107971 896.11911011 C484.94585268 896.1637536 481.05226384 896.15830301 477.1568799 896.14046717 C473.88928104 896.13017535 470.62198052 896.14489024 467.35441244 896.15941131 C459.63737172 896.19330063 451.92112291 896.18639085 444.20410156 896.15283203 C436.2780592 896.11900693 428.35422133 896.15065195 420.42841971 896.21527779 C413.59048399 896.26889331 406.7532298 896.28316224 399.91510522 896.26624763 C395.84544885 896.25645173 391.77711686 896.26046876 387.70763016 896.30182266 C357.12184709 896.58160589 357.12184709 896.58160589 347.29003906 887.42556763 C346.53432617 886.62513031 345.77861328 885.82469299 345 885 C343.63916963 883.99842371 342.25731438 883.02299535 340.8359375 882.109375 C340.26286865 881.71790283 339.6897998 881.32643066 339.09936523 880.9230957 C338.53032471 880.53597412 337.96128418 880.14885254 337.375 879.75 C330.526289 875.06457313 323.72212057 870.31790532 316.92871094 865.55273438 C311.3327147 861.62893343 305.72582758 857.72125395 300.11132812 853.82397461 C296.24998482 851.14231083 292.39296242 848.45447522 288.53662109 845.765625 C286.336598 844.23429035 284.13185662 842.71008945 281.92578125 841.1875 C274.64797219 836.12527837 267.9161046 830.64630123 261.24609375 824.81640625 C257.73210391 821.74769279 254.11517909 818.82640786 250.43359375 815.9609375 C248.64918406 814.52309856 246.91874563 813.01759448 245.22265625 811.4765625 C244.28292969 810.63867188 243.34320313 809.80078125 242.375 808.9375 C241.53710938 808.16277344 240.69921875 807.38804687 239.8359375 806.58984375 C233.3134113 802.93327603 223.61070286 807.31334382 216.83984375 809.19140625 C215.62342194 809.52408005 214.40700012 809.85675385 213.15371704 810.19950867 C209.78919878 811.11988912 206.42663899 812.0472483 203.06438065 812.97584534 C199.45082937 813.97256638 195.83551638 814.96286012 192.22045898 815.95410156 C183.34909585 818.38823156 174.48078528 820.8333874 165.61271667 823.27948761 C161.13947725 824.51307886 156.66591245 825.74548904 152.19238281 826.97802734 C143.7985984 829.29082807 135.40515702 831.60487042 127.01195049 833.91976738 C122.32163077 835.21337907 117.63125003 836.50676839 112.94070435 837.79956055 C107.43296157 839.31760136 101.92538669 840.83624989 96.41796875 842.35546875 C95.08901298 842.72203394 95.08901298 842.72203394 93.73320961 843.09600449 C82.88871896 846.08804393 72.04986369 849.09917855 61.21848106 852.13831711 C57.02622468 853.31325985 52.83193635 854.48093453 48.63790894 855.64953613 C45.47187096 856.53539545 42.30932122 857.43298876 39.14672852 858.33105469 C37.29331533 858.84766515 35.43973103 859.36366229 33.5859375 859.87890625 C32.77268509 860.1140242 31.95943268 860.34914215 31.12153625 860.59138489 C26.97137896 861.7295475 24.1542871 862.01073973 20 861 C19.39257812 858.92464193 18.78515625 856.84928385 18.17773438 854.77392578 C17.88366337 853.76918496 17.88366337 853.76918496 17.58365154 852.74414635 C16.44803892 848.86414155 15.31243214 844.98413504 14.17683411 841.10412598 C11.80649394 833.00538315 9.43610958 824.90665326 7.06555271 816.80797386 C5.67258158 812.04907366 4.2796423 807.29016413 2.88671875 802.53125 C2.60360525 801.56399616 2.32049175 800.59674232 2.02879906 799.60017776 C-1.61229419 787.16022851 -5.25229553 774.71996059 -8.89068604 762.27922058 C-9.94586602 758.67131981 -11.00133647 755.06350422 -12.05706787 751.45576477 C-14.36176913 743.57951018 -16.66552762 735.70299226 -18.96234131 727.82443333 C-20.18336479 723.63652146 -21.40568762 719.44898995 -22.62890625 715.26171875 C-22.98002346 714.05977403 -22.98002346 714.05977403 -23.33823395 712.83354759 C-26.31131826 702.66516595 -29.34710068 692.51963356 -32.46484375 682.39453125 C-33.10418605 680.30200107 -33.74327808 678.2093944 -34.38208008 676.11669922 C-35.4897858 672.48925893 -36.62343157 668.8716603 -37.77612305 665.25830078 C-38.25023932 663.7128878 -38.72338077 662.16717524 -39.1953125 660.62109375 C-39.41368271 659.96583206 -39.63205292 659.31057037 -39.85704041 658.63545227 C-41.46851716 653.21309784 -40.57158085 649.24879025 -39 644 C-38.597314 642.65277611 -38.597314 642.65277611 -38.18649292 641.27833557 C-37.22413416 638.16627563 -36.22226224 635.06914236 -35.2109375 631.97265625 C-34.83574478 630.81239929 -34.46055206 629.65214233 -34.07398987 628.45672607 C-33.26619932 625.96026316 -32.45699127 623.46431676 -31.64523315 620.96914673 C-30.35378449 616.99925625 -29.06806201 613.02752628 -27.78344727 609.05541992 C-27.34597165 607.70289317 -26.90848688 606.35036937 -26.47099304 604.99784851 C-26.25373755 604.32618841 -26.03648205 603.65452831 -25.81264305 602.96251488 C-25.15027843 600.91549218 -24.48736746 598.86864717 -23.82429504 596.82185364 C-20.15518343 585.49431077 -16.51852034 574.15654743 -12.89608765 562.81399536 C-11.28356188 557.76491235 -9.66927442 552.71639298 -8.0546875 547.66796875 C-7.56910622 546.14966713 -7.56910622 546.14966713 -7.07371521 544.60069275 C-1.83631151 528.23074888 3.42678903 511.86902229 8.69145203 495.50782776 C9.38966931 493.33549184 10.08639705 491.16267654 10.78157043 488.98936462 C12.46509712 483.73276521 14.16585468 478.48318242 15.91621685 473.24849129 C16.56430262 471.3075472 17.20746814 469.36504076 17.84913635 467.42196655 C18.66431637 464.95816482 19.48873424 462.49739495 20.32359314 460.04019165 C20.68868484 458.93041962 21.05377655 457.82064758 21.42993164 456.67724609 C21.7577211 455.69984467 22.08551056 454.72244324 22.42323303 453.71542358 C23.05874105 450.72344666 22.88631195 448.90879719 22 446 C20.3913915 443.54122453 20.3913915 443.54122453 18.25 441.125 C17.43789062 440.1659375 16.62578125 439.206875 15.7890625 438.21875 C14.86047438 437.1448817 13.93072701 436.07201504 13 435 C11.96611936 433.80210618 10.93226621 432.60418864 9.8984375 431.40625 C7.69782499 428.86139835 5.49087042 426.32218758 3.28125 423.78515625 C-0.26549571 419.70535552 -3.76330557 415.58529726 -7.2331543 411.43994141 C-10.31702643 407.76458663 -13.51435213 404.2240868 -16.85546875 400.78125 C-18 399 -18 399 -18.64453125 396.63671875 C-17.5845848 392.30057418 -14.08683922 390.68756921 -10.5 388.3125 C-9.08989656 387.35591631 -7.68342481 386.39394957 -6.28125 385.42578125 C-5.65283203 385.00723877 -5.02441406 384.58869629 -4.37695312 384.1574707 C-3.69536133 383.58452271 -3.69536133 383.58452271 -3 383 C-2.76536345 380.93062333 -2.76536345 380.93062333 -4.29296875 379.6953125 C-4.91816406 379.17710937 -5.54335937 378.65890625 -6.1875 378.125 C-10.66524748 374.32569911 -14.96522136 370.36064781 -19.25463867 366.35205078 C-22.74243589 363.10900191 -26.31667855 360.01965993 -30 357 C-29.44140783 353.44575919 -28.35466233 352.09638895 -25.54296875 349.90625 C-24.84236328 349.35066406 -24.14175781 348.79507812 -23.41992188 348.22265625 C-22.68322266 347.65417969 -21.94652344 347.08570313 -21.1875 346.5 C-19.74187974 345.36663371 -18.2978229 344.23126993 -16.85546875 343.09375 C-16.18177246 342.56265625 -15.50807617 342.0315625 -14.81396484 341.484375 C-12.73436676 339.78263121 -10.83374753 337.96369815 -9 336 C-9.58555664 335.72381836 -10.17111328 335.44763672 -10.77441406 335.16308594 C-12.90235864 334.05102714 -14.69962683 332.83964771 -16.609375 331.390625 C-17.28226563 330.88273437 -17.95515625 330.37484375 -18.6484375 329.8515625 C-19.68871094 329.05878906 -19.68871094 329.05878906 -20.75 328.25 C-21.42804688 327.73695313 -22.10609375 327.22390625 -22.8046875 326.6953125 C-24.17209634 325.66065714 -25.53863682 324.62485313 -26.90429688 323.58789062 C-30.25972307 321.04552204 -33.62972499 318.52263394 -37 316 C-36.62922771 313.33043953 -36.18112112 312.17839166 -34.23413086 310.26074219 C-33.48526611 309.69516602 -32.73640137 309.12958984 -31.96484375 308.546875 C-31.15595703 307.928125 -30.34707031 307.309375 -29.51367188 306.671875 C-28.66353516 306.03765625 -27.81339844 305.4034375 -26.9375 304.75 C-26.08349609 304.1003125 -25.22949219 303.450625 -24.34960938 302.78125 C-22.23978205 301.1782527 -20.12197875 299.5868385 -18 298 C-19.36902694 289.27607397 -21.06500724 280.6530652 -22.92089844 272.02075195 C-23.21042773 270.66420331 -23.49966991 269.30759337 -23.78865051 267.95092773 C-24.40573696 265.05507563 -25.02409948 262.15950007 -25.6432724 259.2640934 C-26.62300433 254.67896406 -27.59526624 250.09227054 -28.56573486 245.50517273 C-28.73029324 244.72746798 -28.89485162 243.94976324 -29.06439662 243.14849168 C-29.40051942 241.55979538 -29.73661496 239.97109332 -30.07268381 238.38238561 C-32.3278949 227.72160037 -34.58698385 217.06172304 -36.87060547 206.40698242 C-38.41685609 199.19234435 -39.94983968 191.97502846 -41.46756196 184.7543332 C-42.26919549 180.94304603 -43.07741832 177.1334345 -43.90190887 173.32702065 C-44.67644055 169.75069625 -45.43333035 166.17108076 -46.17716026 162.58824921 C-46.58247392 160.65869311 -47.00624868 158.73304331 -47.43067932 156.80760193 C-48.85666066 149.84074975 -49.28200475 144.73815069 -47 138 C-46.70066433 137.03466119 -46.40132866 136.06932238 -46.09292221 135.07473087 C-44.99141158 131.58069687 -43.83750466 128.10711358 -42.67382812 124.63330078 C-42.2330626 123.30693185 -41.79267914 121.9804359 -41.35264587 120.65382385 C-40.16470834 117.07641823 -38.97114586 113.50091375 -37.7762661 109.92582178 C-36.52396105 106.17653631 -35.27607166 102.42578109 -34.02746582 98.67526245 C-31.93251484 92.38496521 -29.83378955 86.09593668 -27.73291016 79.80761719 C-25.30420222 72.53785561 -22.88201718 65.26594491 -20.46316385 57.99289906 C-18.38319536 51.73938664 -16.29972684 45.48704849 -14.2133193 39.23568141 C-12.9683966 35.5055892 -11.72469217 31.77510274 -10.48414612 28.0435524 C-9.31939039 24.54062812 -8.15025131 21.03919756 -6.97769356 17.53887749 C-6.34292555 15.64043827 -5.71259313 13.74051777 -5.0823822 11.84056091 C-4.70388626 10.71353256 -4.32539032 9.58650421 -3.9354248 8.42532349 C-3.60802055 7.44424181 -3.2806163 6.46316013 -2.94329071 5.45234871 C-2 3 -2 3 0 0 Z " fill="#F2821B" transform="translate(166,131)"/>
<path d="M0 0 C1.87280464 0.20066833 1.87280464 0.20066833 4 1 C5.13136101 3.04335022 5.13136101 3.04335022 6.03512573 5.78930664 C6.3853479 6.826297 6.73557007 7.86328735 7.09640503 8.93170166 C7.46532867 10.07959167 7.83425232 11.22748169 8.21435547 12.41015625 C8.61495178 13.61194519 9.0155481 14.81373413 9.42828369 16.05194092 C10.52996259 19.35809533 11.61114418 22.67064093 12.68900824 25.98462296 C13.82461744 29.46402201 14.97920426 32.93711002 16.13186646 36.41088867 C18.31931307 43.0126604 20.49015312 49.61976711 22.65489399 56.2290144 C25.3359635 64.412309 28.03654413 72.58913512 30.73828125 80.765625 C31.6912076 83.64961966 32.64404323 86.53364426 33.59671021 89.41772461 C33.8283887 90.11906997 34.0600672 90.82041533 34.29876626 91.54301357 C35.65919401 95.66306982 37.01588894 99.7843301 38.36872256 103.9068861 C39.0095754 105.85941961 39.65143627 107.81161953 40.29342842 109.76377869 C41.10285922 112.22847396 41.90929958 114.69415374 42.71244621 117.16090393 C44.36646931 122.21086067 46.04480563 127.2237708 48.0010376 132.16552734 C48.29627886 132.92604904 48.59152012 133.68657074 48.89570808 134.47013855 C49.64585066 136.36870595 50.43156768 138.25312386 51.22146606 140.13549805 C52.35110915 145.74284248 51.18918489 150.46381281 50 156 C49.78235867 157.08475113 49.56471733 158.16950226 49.3404808 159.28712463 C48.61353266 162.88242361 47.85701661 166.47057524 47.0949707 170.05859375 C46.80710147 171.42326358 46.51948063 172.78798584 46.23208618 174.15275574 C45.61844142 177.06502143 45.00339011 179.97698508 44.38729286 182.88873291 C43.41324008 187.49386744 42.44440835 192.10009088 41.47660828 196.70654297 C38.72599484 209.79583828 35.97222486 222.88445521 33.20483398 235.97021484 C31.67221783 243.21748478 30.14584219 250.46603899 28.62652653 257.71610928 C27.82372815 261.54564348 27.01765493 265.37442407 26.20382118 269.20162964 C25.4403673 272.79197116 24.68503377 276.38392348 23.93594742 279.9772892 C23.527806 281.92427774 23.1108929 283.86942102 22.69374084 285.8144989 C22.33412262 287.55108513 22.33412262 287.55108513 21.96723938 289.32275391 C21.64896919 290.83139511 21.64896919 290.83139511 21.32426929 292.37051392 C20.99885371 295.00929526 20.99980943 296.55127384 22 299 C24.05164892 300.78215266 26.0490593 302.3650555 28.25 303.9375 C32.5193798 307.0411952 36.35559588 310.17063552 40 314 C36.68898021 318.65425004 32.74947502 321.68066822 28.1875 325 C27.15786133 325.76183594 27.15786133 325.76183594 26.10742188 326.5390625 C21.77119321 329.7389285 17.39177118 332.87696272 13 336 C14.53924429 340.13906545 17.22749781 341.90953512 20.75 344.4375 C24.95881146 347.49599524 29.05657508 350.60427299 33 354 C32.58199718 358.37373678 29.68498947 360.4753976 26.5625 363.1875 C26.0255249 363.66582275 25.4885498 364.14414551 24.93530273 364.63696289 C23.83093749 365.62005172 22.72357788 366.5997869 21.61328125 367.57617188 C19.23974528 369.67097541 16.90427904 371.8073275 14.5625 373.9375 C11.46061631 376.74546578 8.28599971 379.40944996 5 382 C11.55104759 387.46076436 11.55104759 387.46076436 18.625 392.1875 C21 394 21 394 21.45703125 396.26171875 C20.82275656 400.06194573 18.6934454 402.00444162 16.0625 404.625 C15.04179894 405.68643057 14.02360832 406.75028038 13.0078125 407.81640625 C12.24259277 408.61522217 12.24259277 408.61522217 11.46191406 409.43017578 C9.33485755 411.71423947 7.38750315 414.12674338 5.4375 416.5625 C1.63261483 421.28978158 -2.39407012 425.75627582 -6.50390625 430.21875 C-9.83741066 433.93307729 -12.97062274 437.7927195 -16.08984375 441.6875 C-17.65346476 443.58047267 -19.25215822 445.28399336 -21 447 C-25.83690281 445.55006785 -30.6735375 444.0992981 -35.5078125 442.640625 C-47.63008335 438.98692544 -59.77774748 435.42459434 -71.93554688 431.89111328 C-76.95797381 430.43064018 -81.97892018 428.96509634 -87 427.5 C-88.99999271 426.91664166 -90.99999271 426.33330834 -93 425.75 C-97 424.58333333 -101 423.41666667 -105 422.25 C-105.99040283 421.96116943 -106.98080566 421.67233887 -108.0012207 421.37475586 C-109.99723196 420.79251143 -111.99316324 420.20999276 -113.98901367 419.62719727 C-119.04941429 418.14992207 -124.11120124 416.67773159 -129.17578125 415.21484375 C-138.36031575 412.55708274 -147.52330002 409.86764407 -156.625 406.9375 C-164.16959089 404.5131949 -171.77092493 402.38034034 -179.42456055 400.32885742 C-188.60359769 397.86170387 -197.72141517 395.19678581 -206.83984375 392.515625 C-208.18344971 392.12407227 -208.18344971 392.12407227 -209.55419922 391.72460938 C-211.62921413 391.10985151 -213.69300139 390.45739394 -215.75390625 389.796875 C-219.02815306 388.8329624 -219.02815306 388.8329624 -222.609375 389.15234375 C-227.00605112 388.95479724 -228.18912437 387.64684861 -231.25 384.5625 C-232.20468534 383.63170239 -233.16177827 382.70336865 -234.12109375 381.77734375 C-234.60046387 381.30796387 -235.07983398 380.83858398 -235.57373047 380.35498047 C-237.71890909 378.31702406 -240.00587861 376.47641187 -242.3125 374.625 C-246.60854174 371.15629868 -250.81939906 367.60578247 -255 364 C-259.10222621 360.46380797 -263.2280229 356.97136333 -267.4375 353.5625 C-272.48854068 349.46084729 -277.40128396 345.21408989 -282.30786133 340.94213867 C-287.95935567 336.02402796 -293.66870796 331.17808344 -299.3984375 326.3515625 C-301.03928736 324.9668453 -302.67638805 323.57781109 -304.3125 322.1875 C-309.29738213 317.9537243 -314.29415822 313.7437889 -319.375 309.625 C-324.43842504 305.50360753 -329.36919865 301.24230162 -334.29223633 296.95556641 C-344.13106367 287.90140221 -344.13106367 287.90140221 -354.73779297 279.89453125 C-357.16334802 278.25747365 -358.81908869 276.85130606 -359.44042969 273.92749023 C-359.35657272 270.32659564 -358.76666916 267.91661255 -356.43212891 265.12548828 C-354.31022603 263.28265891 -352.11962873 261.66719523 -349.8125 260.0625 C-348.99241455 259.45970215 -348.1723291 258.8569043 -347.32739258 258.23583984 C-344.90332848 256.4630556 -342.45652023 254.72741841 -340 253 C-338.80905464 252.14831046 -337.61885212 251.29558037 -336.4296875 250.44140625 C-334.80360058 249.27963572 -333.17742386 248.11792023 -331.54223633 246.96899414 C-326.08558919 243.12212382 -320.79730477 239.06228405 -315.5 235 C-309.20399702 230.17319428 -302.87896052 225.42590448 -296.38671875 220.8671875 C-290.98684953 217.04807625 -285.74850383 213.02349719 -280.5 209 C-274.17437953 204.15183136 -267.82124527 199.37694244 -261.30541992 194.78808594 C-255.36057822 190.58478523 -249.5585012 186.19444708 -243.74291992 181.81494141 C-237.93740728 177.44557836 -232.10564766 173.11441328 -226.25 168.8125 C-220.47765904 164.57082483 -214.72378454 160.30698491 -209 156 C-203.25237684 151.67650294 -197.47937653 147.38903774 -191.6875 143.125 C-190.89069824 142.53831543 -190.09389648 141.95163086 -189.27294922 141.34716797 C-185.28789972 138.41474278 -181.29984916 135.48647219 -177.30859375 132.5625 C-168.87063282 126.37313592 -160.4960942 120.1122353 -152.1875 113.75 C-145.96532856 108.98591268 -139.71089184 104.29956612 -133.30419922 99.78710938 C-127.35959555 95.58438052 -121.55807882 91.194129 -115.74291992 86.81494141 C-109.93740728 82.44557836 -104.10564766 78.11441328 -98.25 73.8125 C-92.47765904 69.57082483 -86.72378454 65.30698491 -81 61 C-75.25237684 56.67650294 -69.47937653 52.38903774 -63.6875 48.125 C-62.89069824 47.53831543 -62.09389648 46.95163086 -61.27294922 46.34716797 C-57.28789972 43.41474278 -53.29984916 40.48647219 -49.30859375 37.5625 C-39.94296532 30.69241826 -30.67219548 23.71329078 -21.45849609 16.640625 C-15.50131032 12.08770518 -9.44846123 7.74910631 -3.203125 3.6015625 C-0.90157127 2.18689617 -0.90157127 2.18689617 0 0 Z " fill="#763D15" transform="translate(1031,131)"/>
<path d="M0 0 C2.84502179 1.3408073 5.31949007 2.85768138 7.84375 4.73046875 C8.58496094 5.27832031 9.32617188 5.82617188 10.08984375 6.390625 C10.88519531 6.98359375 11.68054688 7.5765625 12.5 8.1875 C13.33660156 8.80753906 14.17320312 9.42757812 15.03515625 10.06640625 C21.88116838 15.14735117 28.69838627 20.26679096 35.51342773 25.38916016 C41.17570939 29.64205773 46.85923376 33.86473609 52.5625 38.0625 C53.34383301 38.63758301 54.12516602 39.21266602 54.93017578 39.80517578 C58.84251264 42.68263122 62.75807882 45.5556366 66.67578125 48.42578125 C76.0342178 55.29077669 85.30058988 62.26282981 94.51513672 69.31982422 C99.81153053 73.36514785 105.16102294 77.30406632 110.61450195 81.13378906 C116.01411562 84.95235282 121.25191667 88.97682516 126.5 93 C132.82562047 97.84816864 139.17875473 102.62305756 145.69458008 107.21191406 C150.76410564 110.79632245 155.72756122 114.51585845 160.6875 118.25 C167.28904287 123.21992576 173.90660094 128.16555655 180.5625 133.0625 C181.34343018 133.63726074 182.12436035 134.21202148 182.92895508 134.80419922 C186.84164925 137.68204781 190.75765875 140.55532886 194.67578125 143.42578125 C204.0342178 150.29077669 213.30058988 157.26282981 222.51513672 164.31982422 C227.81153053 168.36514785 233.16102294 172.30406632 238.61450195 176.13378906 C244.01411562 179.95235282 249.25191667 183.97682516 254.5 188 C260.82562047 192.84816864 267.17875473 197.62305756 273.69458008 202.21191406 C278.76410564 205.79632245 283.72756122 209.51585845 288.6875 213.25 C295.28904143 218.21992467 301.90651462 223.16567528 308.5625 228.0625 C309.73280762 228.92355347 309.73280762 228.92355347 310.92675781 229.80200195 C313.28400797 231.53534578 315.64187846 233.26784187 318 235 C328.00067443 242.34599519 337.98869397 249.70884757 347.9375 257.125 C348.7843335 257.75269287 349.63116699 258.38038574 350.50366211 259.02709961 C351.29522705 259.61885986 352.08679199 260.21062012 352.90234375 260.8203125 C353.59835693 261.33867676 354.29437012 261.85704102 355.01147461 262.39111328 C361.45655751 267.6057353 361.45655751 267.6057353 362.1328125 271.88671875 C362.41627004 275.60001258 362.06667766 275.91971678 359.4921875 279.01953125 C358.3074228 279.97705777 357.09985915 280.9068265 355.875 281.8125 C354.57143603 282.84873376 353.26805455 283.88519712 351.96484375 284.921875 C351.29952637 285.43556641 350.63420898 285.94925781 349.94873047 286.47851562 C347.03613666 288.75254277 344.24183163 291.15736916 341.4375 293.5625 C340.36408972 294.47100816 339.28986986 295.37856066 338.21484375 296.28515625 C334.97453525 299.02104458 331.73706359 301.76027372 328.5 304.5 C327.41667901 305.41668126 326.33334568 306.33334793 325.25 307.25 C324.71375 307.70375 324.1775 308.1575 323.625 308.625 C300.33333333 328.33333333 277.04166667 348.04166667 253.75 367.75 C253.21310547 368.20439453 252.67621094 368.65878906 252.12304688 369.12695312 C251.04661943 370.03757706 249.96980045 370.94773838 248.89257812 371.85742188 C246.07509131 374.23777134 243.26615906 376.62732266 240.46875 379.03125 C239.88802734 379.52818359 239.30730469 380.02511719 238.70898438 380.53710938 C237.60356335 381.48334977 236.50052822 382.43238766 235.40039062 383.38476562 C232.4194497 385.93058841 229.42239307 388.08748623 226 390 C226 389.34 226 388.68 226 388 C208.31442653 392.52567151 190.755617 397.47356896 173.375 403.0625 C165.82141653 405.48937984 158.21047141 407.62159479 150.54907227 409.67993164 C136.46259378 413.47277587 122.45129241 417.53595837 108.5625 422 C100.30240652 424.65288319 91.9718899 427.00814042 83.61181641 429.32421875 C74.40004446 431.87736752 65.22158537 434.53429031 56.05078125 437.23046875 C51.78336613 438.48410525 47.50930869 439.71172228 43.23046875 440.92578125 C42.12517822 441.24160156 41.0198877 441.55742188 39.88110352 441.8828125 C37.75155035 442.49084568 35.62057284 443.09391784 33.48803711 443.69140625 C32.53550049 443.9646875 31.58296387 444.23796875 30.6015625 444.51953125 C29.75932129 444.75776611 28.91708008 444.99600098 28.04931641 445.24145508 C25.8154366 445.90611008 25.8154366 445.90611008 24 448 C23.27296875 447.15179687 22.5459375 446.30359375 21.796875 445.4296875 C21.31726318 444.87015381 20.83765137 444.31062012 20.34350586 443.73413086 C19.26614123 442.47717795 18.1888315 441.22017799 17.11157227 439.96313477 C14.38162252 436.77773215 11.65097788 433.59293455 8.91796875 430.41015625 C3.52384013 424.12624724 -1.86278334 417.83665879 -7.18310547 411.48999023 C-10.28516516 407.7996483 -13.49821052 404.24071984 -16.85546875 400.78125 C-18 399 -18 399 -18.64453125 396.63671875 C-17.5845848 392.30057418 -14.08683922 390.68756921 -10.5 388.3125 C-9.08989656 387.35591631 -7.68342481 386.39394957 -6.28125 385.42578125 C-5.65283203 385.00723877 -5.02441406 384.58869629 -4.37695312 384.1574707 C-3.69536133 383.58452271 -3.69536133 383.58452271 -3 383 C-2.76536345 380.93062333 -2.76536345 380.93062333 -4.29296875 379.6953125 C-4.91816406 379.17710937 -5.54335937 378.65890625 -6.1875 378.125 C-10.66524748 374.32569911 -14.96522136 370.36064781 -19.25463867 366.35205078 C-22.74243589 363.10900191 -26.31667855 360.01965993 -30 357 C-29.44140783 353.44575919 -28.35466233 352.09638895 -25.54296875 349.90625 C-24.84236328 349.35066406 -24.14175781 348.79507812 -23.41992188 348.22265625 C-22.68322266 347.65417969 -21.94652344 347.08570313 -21.1875 346.5 C-19.74187974 345.36663371 -18.2978229 344.23126993 -16.85546875 343.09375 C-16.18177246 342.56265625 -15.50807617 342.0315625 -14.81396484 341.484375 C-12.73436676 339.78263121 -10.83374753 337.96369815 -9 336 C-9.58555664 335.72381836 -10.17111328 335.44763672 -10.77441406 335.16308594 C-12.90235864 334.05102714 -14.69962683 332.83964771 -16.609375 331.390625 C-17.28226563 330.88273437 -17.95515625 330.37484375 -18.6484375 329.8515625 C-19.68871094 329.05878906 -19.68871094 329.05878906 -20.75 328.25 C-21.42804688 327.73695313 -22.10609375 327.22390625 -22.8046875 326.6953125 C-24.17209634 325.66065714 -25.53863682 324.62485313 -26.90429688 323.58789062 C-30.25972307 321.04552204 -33.62972499 318.52263394 -37 316 C-36.62922771 313.33043953 -36.18112112 312.17839166 -34.23413086 310.26074219 C-33.48526611 309.69516602 -32.73640137 309.12958984 -31.96484375 308.546875 C-31.15595703 307.928125 -30.34707031 307.309375 -29.51367188 306.671875 C-28.66353516 306.03765625 -27.81339844 305.4034375 -26.9375 304.75 C-26.08349609 304.1003125 -25.22949219 303.450625 -24.34960938 302.78125 C-22.23978205 301.1782527 -20.12197875 299.5868385 -18 298 C-19.36902694 289.27607397 -21.06500724 280.6530652 -22.92089844 272.02075195 C-23.21042773 270.66420331 -23.49966991 269.30759337 -23.78865051 267.95092773 C-24.40573696 265.05507563 -25.02409948 262.15950007 -25.6432724 259.2640934 C-26.62300433 254.67896406 -27.59526624 250.09227054 -28.56573486 245.50517273 C-28.73029324 244.72746798 -28.89485162 243.94976324 -29.06439662 243.14849168 C-29.40051942 241.55979538 -29.73661496 239.97109332 -30.07268381 238.38238561 C-32.3278949 227.72160037 -34.58698385 217.06172304 -36.87060547 206.40698242 C-38.41685609 199.19234435 -39.94983968 191.97502846 -41.46756196 184.7543332 C-42.26919549 180.94304603 -43.07741832 177.1334345 -43.90190887 173.32702065 C-44.67644055 169.75069625 -45.43333035 166.17108076 -46.17716026 162.58824921 C-46.58247392 160.65869311 -47.00624868 158.73304331 -47.43067932 156.80760193 C-48.85666066 149.84074975 -49.28200475 144.73815069 -47 138 C-46.70066433 137.03466119 -46.40132866 136.06932238 -46.09292221 135.07473087 C-44.99141158 131.58069687 -43.83750466 128.10711358 -42.67382812 124.63330078 C-42.2330626 123.30693185 -41.79267914 121.9804359 -41.35264587 120.65382385 C-40.16470834 117.07641823 -38.97114586 113.50091375 -37.7762661 109.92582178 C-36.52396105 106.17653631 -35.27607166 102.42578109 -34.02746582 98.67526245 C-31.93251484 92.38496521 -29.83378955 86.09593668 -27.73291016 79.80761719 C-25.30420222 72.53785561 -22.88201718 65.26594491 -20.46316385 57.99289906 C-18.38319536 51.73938664 -16.29972684 45.48704849 -14.2133193 39.23568141 C-12.9683966 35.5055892 -11.72469217 31.77510274 -10.48414612 28.0435524 C-9.31939039 24.54062812 -8.15025131 21.03919756 -6.97769356 17.53887749 C-6.34292555 15.64043827 -5.71259313 13.74051777 -5.0823822 11.84056091 C-4.70388626 10.71353256 -4.32539032 9.58650421 -3.9354248 8.42532349 C-3.60802055 7.44424181 -3.2806163 6.46316013 -2.94329071 5.45234871 C-2 3 -2 3 0 0 Z " fill="#763D15" transform="translate(166,131)"/>
<path d="M0 0 C12.23121884 0.01148733 24.4624385 0.01675217 36.69366145 0.02170491 C61.71072482 0.0319637 86.72777857 0.04937408 111.74483359 0.07202852 C111.1310987 5.27774358 110.33485548 10.02347222 108.82491171 15.06690156 C108.53300987 16.05159976 108.53300987 16.05159976 108.23521101 17.05619085 C107.58809079 19.23385761 106.93206361 21.40873453 106.27608359 23.58374727 C105.80724246 25.15557267 105.33900728 26.72757892 104.87132895 28.29975069 C103.86437914 31.68071233 102.85362892 35.06050488 101.83986533 38.43942964 C100.22542512 43.82099262 98.61966762 49.20511983 97.01582968 54.58985078 C96.74364552 55.5035994 96.47146136 56.41734802 96.19102919 57.35878599 C95.63416147 59.22825207 95.07731437 61.09772431 94.52048743 62.96720254 C93.66694579 65.83182744 92.81258904 68.69620819 91.95805991 71.56053865 C85.97395904 91.62467394 80.06571782 111.71097556 74.16570151 131.79996812 C72.87684453 136.18792714 71.58717585 140.57564756 70.29756796 144.96338594 C68.60613585 150.71858748 66.91500259 156.47387666 65.22429907 162.22929227 C62.15771439 172.66837173 59.08856382 183.10669534 56.01827109 193.54468477 C55.68858769 194.66550353 55.68858769 194.66550353 55.35224402 195.80896509 C54.1498465 199.89667426 52.94737546 203.9843618 51.74483359 208.07202852 C47.19200039 209.44667225 43.64045211 208.54358135 39.20430624 207.27149141 C38.45394158 207.06585069 37.70357691 206.86020998 36.93047392 206.64833772 C34.42026523 205.9575586 31.91474364 205.25110645 29.40889609 204.54468477 C27.61369429 204.0473277 25.81821595 203.55096788 24.02248251 203.05553377 C19.1514119 201.70876112 14.28417461 200.34858213 9.4174639 198.98615205 C4.31155979 197.55936873 -0.79785527 196.14527878 -5.90702188 194.73023164 C-14.41594722 192.37219317 -22.92302098 190.00758546 -31.42899454 187.63892305 C-43.77745269 184.20111247 -56.13226517 180.78658433 -68.48954141 177.38062227 C-69.461667 177.11267414 -70.43379259 176.844726 -71.43537652 176.56865823 C-75.29096275 175.50601304 -79.14657495 174.44346222 -83.00225389 173.38115346 C-89.3454929 171.63334949 -95.68800518 169.88293038 -102.03006876 168.13086641 C-122.76094358 162.40457285 -143.50143822 156.71495794 -164.25516641 151.07202852 C-163.92516641 149.75202852 -163.59516641 148.43202852 -163.25516641 147.07202852 C-163.89039728 146.87496309 -164.52562814 146.67789766 -165.18010843 146.47486055 C-167.25516641 145.07202852 -167.25516641 145.07202852 -168.04421365 142.26685274 C-168.18013422 141.06560762 -168.31605478 139.8643625 -168.45609415 138.62671602 C-168.57673652 137.62901658 -168.57673652 137.62901658 -168.69981611 136.61116159 C-168.96375054 134.39144828 -169.20115713 132.16970234 -169.43876016 129.94702852 C-169.61970389 128.38152115 -169.80231195 126.81620535 -169.98648965 125.25107515 C-170.47522161 121.05974562 -170.94153777 116.86619783 -171.40376794 112.6718744 C-171.88386475 108.35140248 -172.38481245 104.0333585 -172.8843168 99.71509492 C-173.66866218 92.9162003 -174.44264761 86.1162175 -175.20829141 79.31519258 C-176.38637784 68.86007318 -177.62804418 58.41296269 -178.88898599 47.96753633 C-179.44148336 43.38188036 -179.98689055 38.79537239 -180.52663553 34.20819795 C-180.94684828 30.64057483 -181.3783788 27.07480601 -181.82596719 23.51050508 C-181.96609987 22.37411088 -181.96609987 22.37411088 -182.10906351 21.21475923 C-182.28520269 19.78733111 -182.46491498 18.36033658 -182.64919412 16.93393648 C-183.22025634 12.2590584 -183.4873801 7.77001167 -183.25516641 3.07202852 C-180.5534763 0.37033841 -179.13897661 0.79937633 -175.35503519 0.75417268 C-174.0874065 0.73450756 -172.81977781 0.71484243 -171.51373613 0.69458139 C-170.09104139 0.68282291 -168.66834418 0.67136129 -167.24564493 0.66016328 C-165.74010393 0.64143998 -164.23457192 0.62198153 -162.72904909 0.60184991 C-158.56165304 0.54927731 -154.39422612 0.51046724 -150.22665608 0.47466671 C-147.55635536 0.45079875 -144.88611532 0.42332436 -142.21586168 0.39469278 C-94.81234143 -0.11060385 -47.40552785 -0.04531365 0 0 Z " fill="#E4751A" transform="translate(962.2551664113998,783.9279714822769)"/>
<path d="M0 0 C25.52143459 -0.02379989 51.04286742 -0.04120225 76.56431103 -0.05181217 C88.42544626 -0.05687855 100.28657437 -0.06376025 112.14770508 -0.07543945 C159.20108177 -0.12065694 206.2536133 -0.12748311 253.30505967 0.35152745 C256.09593156 0.3787371 258.88681312 0.40242967 261.67772484 0.42515373 C265.97612936 0.46077862 270.27430631 0.50636975 274.57251716 0.56046176 C276.13226608 0.57870319 277.69205662 0.59371332 279.25186944 0.60526395 C281.36263145 0.62165633 283.47287461 0.65021099 285.58345032 0.68214417 C287.34618019 0.7018469 287.34618019 0.7018469 289.14452076 0.72194767 C292 1 292 1 295 3 C295.21484375 5.859375 295.21484375 5.859375 294.9375 9.75 C294.8600354 10.84103027 294.8600354 10.84103027 294.78100586 11.95410156 C294.06001742 20.90193807 292.75020279 29.7899706 291.51782227 38.6784668 C290.3592326 47.0781103 289.3705904 55.4635101 288.68383789 63.91503906 C288.30731907 68.38721932 287.7432203 72.78590078 287.03515625 77.21875 C285.94383763 84.10418814 285.23171424 91.00016729 284.5625 97.9375 C283.56904005 107.91376072 282.4339786 117.84816112 281.00219727 127.77124023 C280.88545654 128.58278564 280.76871582 129.39433105 280.6484375 130.23046875 C280.47586426 131.39715088 280.47586426 131.39715088 280.29980469 132.58740234 C280.08630571 134.30547802 279.93755772 136.03212337 279.83300781 137.76025391 C279.77725586 138.66050293 279.72150391 139.56075195 279.6640625 140.48828125 C279.61306396 141.71285034 279.61306396 141.71285034 279.56103516 142.9621582 C279 145 279 145 276.95849609 146.28198242 C276.31219238 146.51892822 275.66588867 146.75587402 275 147 C275.33 148.32 275.66 149.64 276 151 C275.27864365 151.19726685 274.55728729 151.39453369 273.81407166 151.59777832 C238.03773611 161.38236602 202.26806469 171.19068295 166.51492023 181.05971241 C160.01243205 182.85451546 153.50937979 184.64726384 147.00610352 186.43920898 C143.3946439 187.43455137 139.78323811 188.43008879 136.171875 189.42578125 C135.29663618 189.66708456 134.42139736 189.90838787 133.51963615 190.1570034 C122.75616077 193.12534013 111.99850805 196.1133842 101.24840164 199.12976837 C97.04851885 200.30687924 92.84660469 201.47672465 88.6449585 202.64752197 C85.47600712 203.53423686 82.31053303 204.43264803 79.14501953 205.33154297 C77.29217617 205.84799123 75.43916156 206.36382573 73.5859375 206.87890625 C72.77272034 207.11401413 71.95950317 207.34912201 71.12164307 207.59135437 C66.97144936 208.72952923 64.15432793 209.01074966 60 208 C21.79467773 77.46514893 21.79467773 77.46514893 21.08084106 75.02616119 C20.60974362 73.41660871 20.13861335 71.80706583 19.66744995 70.19753265 C18.51735622 66.26857115 17.36780397 62.339453 16.21948242 58.40997314 C13.98643924 50.7709558 11.74633939 43.13413351 9.49011612 35.50192547 C8.3632467 31.68864871 7.23936838 27.87449335 6.11574554 24.06025887 C5.57331894 22.22200799 5.02943811 20.38418555 4.48404694 18.54681206 C3.7288889 16.00239964 2.97866678 13.45657986 2.22949219 10.91040039 C2.00275566 10.15120111 1.77601913 9.39200184 1.5424118 8.60979652 C0.67232785 5.63797425 0 3.11446383 0 0 Z " fill="#E4751A" transform="translate(126,784)"/>
<path d="M0 0 C1.92538744 26.99894479 3.73173266 54.00186835 5.3564043 81.02057433 C5.51907501 83.72533269 5.6821845 86.4300643 5.84539032 89.13479042 C6.35944251 97.65722537 6.87174391 106.17976288 7.38148713 114.70245665 C7.96413582 124.44349158 8.55317219 134.18411462 9.14730287 143.92445582 C9.61197323 151.54885597 10.07100523 159.17358266 10.52576995 166.79857999 C10.79543072 171.31779637 11.06744285 175.8368405 11.34546661 180.35555077 C11.60475975 184.57210323 11.85704309 188.78901746 12.10397339 193.00631142 C12.19534675 194.54635998 12.28921654 196.08626287 12.38582611 197.62599182 C13.27687474 211.86920388 13.27687474 211.86920388 12 219 C11.76543091 220.58264648 11.76543091 220.58264648 11.52612305 222.19726562 C10.92194141 225.96630381 10.31020772 229.7339845 9.6875 233.5 C9.50716217 234.59387024 9.50716217 234.59387024 9.32318115 235.70983887 C4.70473862 263.5561788 -0.73662825 291.26990371 -6 319 C-13.36798825 318.42211857 -19.98754386 316.25107794 -27 314 C-29.05399187 313.37514716 -31.10972022 312.75597082 -33.16723633 312.14282227 C-34.19564133 311.83634262 -35.22404633 311.52986298 -36.28361511 311.21409607 C-37.8853936 310.73880211 -37.8853936 310.73880211 -39.51953125 310.25390625 C-40.67419388 309.91122208 -41.82885651 309.5685379 -43.01850891 309.21546936 C-51.45438037 306.72408188 -59.91415021 304.32794894 -68.38671875 301.96484375 C-71.95695299 300.95998487 -75.52659046 299.95303926 -79.09594727 298.94506836 C-81.52232708 298.26437571 -83.95078523 297.59105474 -86.38110352 296.92456055 C-89.9723444 295.93742752 -93.55477108 294.92261031 -97.13671875 293.90234375 C-98.21378586 293.61358871 -99.29085297 293.32483368 -100.40055847 293.02732849 C-107.42108108 290.99069216 -111.91509944 288.21970987 -117 283 C-118.20662135 281.84586375 -119.41472735 280.69327553 -120.625 279.54296875 C-121.75256659 278.42706664 -122.87759659 277.30859524 -124 276.1875 C-124.58394531 275.61580078 -125.16789062 275.04410156 -125.76953125 274.45507812 C-127.22015204 273.00955319 -128.61552317 271.50899533 -130 270 C-130 269.34 -130 268.68 -130 268 C-130.99 267.67 -131.98 267.34 -133 267 C-134.37721252 265.6027832 -134.37721252 265.6027832 -135.89282227 263.73828125 C-141.14935929 257.54945534 -146.96490088 251.91149261 -152.71484375 246.1875 C-153.93817223 244.96604016 -155.16127748 243.74435671 -156.38417053 242.52246094 C-159.57941761 239.3310039 -162.77765786 236.14256333 -165.9765625 232.95477295 C-169.24988433 229.69174138 -172.52032274 226.42582256 -175.79101562 223.16015625 C-182.19121509 216.77063203 -188.59458507 210.38429549 -195 204 C-192.2270826 198.90459214 -189.40324638 193.91881552 -186.15625 189.10546875 C-185.61883179 188.30464371 -185.61883179 188.30464371 -185.07055664 187.48764038 C-184.29190778 186.32778317 -183.51175314 185.16893565 -182.73022461 184.01101685 C-180.54077552 180.76567671 -178.36493358 177.51122116 -176.1875 174.2578125 C-175.71090942 173.54623489 -175.23431885 172.83465729 -174.74328613 172.10151672 C-168.60980183 162.93605199 -162.53105003 153.73438559 -156.45776367 144.52896118 C-155.15804846 142.55959441 -153.85743731 140.59081861 -152.5559082 138.62265015 C-150.7122207 135.83447142 -148.87137406 133.04443764 -147.03125 130.25390625 C-146.48098145 129.42273285 -145.93071289 128.59155945 -145.36376953 127.73519897 C-143.04640268 124.21454572 -140.78936803 120.69641844 -138.72607422 117.02001953 C-137.13839903 114.24214937 -136.24033743 112.99886011 -133.625 111.3125 C-129.63892326 108.53186019 -125.98179892 105.49085405 -122.3125 102.3125 C-121.09116394 101.25779153 -119.86980961 100.20310422 -118.6484375 99.1484375 C-118.03967773 98.62217773 -117.43091797 98.09591797 -116.80371094 97.55371094 C-114.02969695 95.164184 -111.23493593 92.79952411 -108.4375 90.4375 C-107.90552002 89.98802002 -107.37354004 89.53854004 -106.82543945 89.07543945 C-105.75337352 88.16978181 -104.68118962 87.26426378 -103.60888672 86.35888672 C-100.90427711 84.07453814 -98.20227873 81.78710492 -95.5 79.5 C-94.41667901 78.58331874 -93.33334568 77.66665207 -92.25 76.75 C-91.71375 76.29625 -91.1775 75.8425 -90.625 75.375 C-71.66666667 59.33333333 -52.70833333 43.29166667 -33.75 27.25 C-33.2135083 26.7960083 -32.6770166 26.3420166 -32.12426758 25.87426758 C-31.04352387 24.95986711 -29.96263249 24.04564114 -28.8815918 23.1315918 C-26.13238517 20.8066787 -23.38600298 18.47856219 -20.64453125 16.14453125 C-1.66398551 0 -1.66398551 0 0 0 Z " fill="#E3751A" transform="translate(528,407)"/>
<path d="M0 0 C7.07821493 5.09631475 13.60906913 10.75213783 20.20068359 16.45068359 C22.95135819 18.81917491 25.72493927 21.16017624 28.5 23.5 C33.06329063 27.35021118 37.59948092 31.23049012 42.125 35.125 C46.20857466 38.63669549 50.31917647 42.10384716 54.5 45.5 C59.90506276 49.89062283 65.18323752 54.41912597 70.4609375 58.9609375 C73.79165095 61.82596955 77.14226641 64.66672022 80.5 67.5 C85.06313055 71.35040241 89.59947901 75.23048847 94.125 79.125 C99.06897299 83.3766004 104.07868283 87.53357526 109.140625 91.64453125 C113.69752015 95.39836701 118.1670359 99.25306647 122.640625 103.10546875 C123.18783203 103.5751709 123.73503906 104.04487305 124.29882812 104.52880859 C125.49731542 105.56527307 126.68804655 106.61073996 127.87304688 107.66259766 C128.48728516 108.20319824 129.10152344 108.74379883 129.734375 109.30078125 C130.28834961 109.79360596 130.84232422 110.28643066 131.41308594 110.79418945 C133.10451547 112.21382264 133.10451547 112.21382264 136 113 C137.34960938 115.01733398 137.34960938 115.01733398 138.84375 117.80859375 C142.0557038 123.50594799 145.54887591 128.93468383 149.21875 134.34765625 C149.79462357 135.1975563 150.37049713 136.04745636 150.96382141 136.92311096 C152.17877427 138.71259216 153.39493511 140.50125372 154.61221313 142.28915405 C157.83775506 147.02779472 161.05021682 151.77527432 164.26171875 156.5234375 C164.90956833 157.48104477 165.55741791 158.43865204 166.22489929 159.42527771 C172.66638261 168.96091232 179.00608003 178.5621589 185.3125 188.1875 C185.81185059 188.94950714 186.31120117 189.71151428 186.82568359 190.49661255 C189.55419965 194.66196925 192.27897486 198.82974634 195 203 C190.32556482 208.62266842 185.32418085 213.79219922 180.12890625 218.93359375 C178.86807472 220.18874535 178.86807472 220.18874535 177.58177185 221.46925354 C174.01199888 225.02279264 170.43629335 228.57034006 166.86108398 232.1184082 C164.23993606 234.72137863 161.62186442 237.32741584 159.00390625 239.93359375 C158.20578018 240.72342148 157.40765411 241.51324921 156.58534241 242.32701111 C152.44948783 246.44491143 148.49201157 250.64310436 144.68467712 255.06596375 C139.88403939 260.57717256 134.73158043 265.77602423 129.62402344 271.00073242 C128.21224266 272.45421753 126.81042206 273.91744624 125.41894531 275.39038086 C116.29004621 285.0421326 109.17105049 291.19110653 96 294 C93.58153019 294.63904792 91.16463456 295.28411007 88.75 295.9375 C87.51765625 296.25589844 86.2853125 296.57429688 85.015625 296.90234375 C80.46114298 298.11390891 75.98528383 299.55639862 71.5 301 C64.78103906 303.15773946 58.04728871 305.09807057 51.21484375 306.87109375 C45.7399123 308.31415156 40.30953915 309.91285949 34.875 311.5 C33.83674072 311.80292969 32.79848145 312.10585938 31.72875977 312.41796875 C25.25357603 314.31621428 18.8053696 316.27666211 12.390625 318.37109375 C10 319 10 319 6 319 C5.68361572 317.16115234 5.68361572 317.16115234 5.36083984 315.28515625 C0.39504437 286.33982083 0.39504437 286.33982083 -4.88171387 257.45010376 C-5.24879461 255.50638262 -5.61317141 253.56215148 -5.97753906 251.61791992 C-7.1877512 245.18687957 -8.43702931 238.76837351 -9.79345703 232.36645508 C-11.28190344 224.5499244 -12.25759903 217.06749293 -12.16368103 209.1000824 C-12.15791327 208.19422659 -12.15214552 207.28837079 -12.14620298 206.35506481 C-12.05072343 196.91580083 -11.56463912 187.50744242 -11.00610352 178.08618164 C-10.89885016 176.2012462 -10.79211599 174.31628115 -10.68585205 172.43128967 C-10.39993436 167.3865118 -10.10665304 162.34218827 -9.81171155 157.29793096 C-9.50258661 151.99193375 -9.19985266 146.68557128 -8.89622498 141.3792572 C-8.38666956 132.49063429 -7.87247054 123.60228985 -7.35522461 114.71411133 C-6.7577613 104.44683608 -6.1668633 94.17919938 -5.57959992 83.911336 C-5.01251177 73.99754131 -4.44169826 64.08396493 -3.86887932 54.1704998 C-3.62581963 49.96376917 -3.3839044 45.75697505 -3.14288521 41.55012703 C-2.8594951 36.60775758 -2.57279163 31.66559104 -2.28352356 26.72356224 C-2.17799597 24.91200327 -2.07357165 23.10037963 -1.97033501 21.28868866 C-1.82920211 18.81536436 -1.68404288 16.34230801 -1.53785706 13.86927795 C-1.49796947 13.15401744 -1.45808188 12.43875693 -1.41698557 11.70182186 C-1.17805853 7.74340905 -0.72495978 3.89876735 0 0 Z " fill="#E3751A" transform="translate(672,407)"/>
<path d="M0 0 C0.47274157 9.73734053 -0.80836491 19.28202669 -1.96621704 28.92687988 C-2.55288154 33.81563008 -3.1193186 38.70672932 -3.6875 43.59765625 C-3.80076126 44.56843109 -3.91402252 45.53920593 -4.03071594 46.53939819 C-5.51700016 59.34324033 -6.77270454 72.16899758 -8 85 C-7.44105104 84.43432532 -6.88210209 83.86865065 -6.30621529 83.28583431 C0.9390453 76.6562655 6.43331887 75.84726082 16.04345703 75.98071289 C17.43097489 75.97149019 18.81847356 75.95885517 20.20593262 75.94309998 C23.9460471 75.91111794 27.68434234 75.92903042 31.42441797 75.95832753 C35.35246305 75.98244855 39.28038634 75.96642767 43.20846558 75.95664978 C49.80056184 75.9466965 56.39193248 75.96962758 62.98388672 76.01196289 C70.59042492 76.06037595 78.19550622 76.05501128 85.80209076 76.0212689 C93.14174692 75.99008936 100.48086273 75.99853516 107.82052231 76.02435112 C110.93451674 76.03452959 114.04802087 76.0307138 117.16199112 76.01536751 C120.83167834 75.99896763 124.49963003 76.01734152 128.16906738 76.06189919 C130.14739992 76.07782237 132.12591624 76.05961279 134.10421753 76.04019165 C140.2069397 76.14870639 144.06907271 76.40714973 148.73654175 80.55760193 C149.33145353 81.19897315 149.92636532 81.84034437 150.53930473 82.50115108 C151.26234889 83.2430813 151.26234889 83.2430813 152 84 C152.66 84 153.32 84 154 84 C153.40796201 75.11186413 152.49605203 66.2943153 151.38613892 57.456604 C150.9339569 53.8521474 150.49256828 50.2463681 150.05078125 46.640625 C149.96171005 45.9148526 149.87263885 45.1890802 149.78086853 44.4413147 C148.91279209 37.34085769 148.10135526 30.23472089 147.3125 23.125 C147.13388428 21.52470947 147.13388428 21.52470947 146.95166016 19.89208984 C146.22194838 13.26782323 145.57877513 6.63913194 145 0 C150.7187728 0.54349356 155.14313104 2.77860661 160.19921875 5.3125 C161.09421585 5.75309753 161.98921295 6.19369507 162.91133118 6.64764404 C165.84027284 8.09135783 168.76378264 9.54573971 171.6875 11 C173.73069354 12.00900163 175.77431791 13.01713129 177.81835938 14.02441406 C181.94202037 16.05702081 186.06408469 18.09281075 190.18505859 20.13085938 C197.41010539 23.70030882 204.65679879 27.22443995 211.90951538 30.73724365 C213.99661452 31.74835987 216.08301888 32.76089526 218.16918945 33.77392578 C224.97852977 37.08037736 231.78979577 40.38282859 238.60272217 43.68188477 C242.03040576 45.34226551 245.45717826 47.00452085 248.88378906 48.66711426 C250.52757686 49.46411937 252.17177432 50.26028022 253.81640625 51.05554199 C256.09478081 52.15731157 258.37174995 53.26193706 260.6484375 54.3671875 C261.32071381 54.69139679 261.99299011 55.01560608 262.68563843 55.34963989 C266.23370592 57.07597402 269.65191947 58.91135536 273 61 C269.50361244 69.11661397 260.32613878 74.37099142 253.49365234 79.65722656 C249.90841238 82.44669727 246.44512502 85.32636998 243.04418945 88.3371582 C233.93757166 96.38619891 224.03203676 103.16397414 214 110 C212.656952 110.92230386 211.31445969 111.84541769 209.97265625 112.76953125 C208.07935652 114.07326998 206.18560683 115.37629775 204.28955078 116.67602539 C198.33963084 120.75523137 192.4195176 124.87684276 186.5 129 C179.7794635 133.67921611 173.05751439 138.35611112 166.3125 143 C165.73886719 143.39574219 165.16523437 143.79148437 164.57421875 144.19921875 C163.44172626 144.97748414 162.30263536 145.74624153 161.15691566 146.50489998 C159.57100288 147.60420038 158.0302871 148.76942892 156.51866722 149.96883965 C148.43841785 156.03768835 142.09408826 157.17019289 132.18212891 157.06689453 C130.73507703 157.08104643 129.28805473 157.09855047 127.84107971 157.11911011 C123.94585268 157.1637536 120.05226384 157.15830301 116.1568799 157.14046717 C112.88928104 157.13017535 109.62198052 157.14489024 106.35441244 157.15941131 C98.63737172 157.19330063 90.92112291 157.18639085 83.20410156 157.15283203 C75.2780592 157.11900693 67.35422133 157.15065195 59.42841971 157.21527779 C52.59048399 157.26889331 45.7532298 157.28316224 38.91510522 157.26624763 C34.84544885 157.25645173 30.77711686 157.26046876 26.70763016 157.30182266 C-3.87815291 157.58160589 -3.87815291 157.58160589 -13.70996094 148.42556763 C-14.46567383 147.62513031 -15.22138672 146.82469299 -16 146 C-17.36083037 144.99842371 -18.74268562 144.02299535 -20.1640625 143.109375 C-21.02366577 142.52216675 -21.02366577 142.52216675 -21.90063477 141.9230957 C-22.46967529 141.53597412 -23.03871582 141.14885254 -23.625 140.75 C-30.473711 136.06457313 -37.27787943 131.31790532 -44.07128906 126.55273438 C-49.6672853 122.62893343 -55.27417242 118.72125395 -60.88867188 114.82397461 C-64.75001518 112.14231083 -68.60703758 109.45447522 -72.46337891 106.765625 C-74.663402 105.23429035 -76.86814338 103.71008945 -79.07421875 102.1875 C-86.35202781 97.12527837 -93.0838954 91.64630123 -99.75390625 85.81640625 C-103.26610847 82.74925389 -106.89073393 79.83874865 -110.546875 76.9453125 C-113.36112285 74.71363188 -116.15215659 72.4551487 -118.9375 70.1875 C-120.28134766 69.09501953 -120.28134766 69.09501953 -121.65234375 67.98046875 C-123.53902027 66.38887974 -125.29653971 64.78216803 -127 63 C-126 60 -126 60 -123.26147461 58.37890625 C-122.00083278 57.7632966 -120.7347376 57.15879075 -119.46484375 56.5625 C-118.76157455 56.22178467 -118.05830536 55.88106934 -117.33372498 55.5300293 C-115.75592653 54.76562809 -114.17619617 54.00520614 -112.59490967 53.24804688 C-108.87896199 51.46082594 -105.18255599 49.63456966 -101.48410034 47.81149292 C-96.18115846 45.19898174 -90.87133121 42.60051686 -85.5625 40 C-84.44049194 39.4501947 -83.31848389 38.9003894 -82.16247559 38.33392334 C-64.62700045 29.74202064 -47.08101008 21.17270367 -29.49316406 12.68847656 C-25.98929692 10.9948265 -22.49044935 9.29113034 -18.9921875 7.5859375 C-16.86992023 6.55702644 -14.74753243 5.52836394 -12.625 4.5 C-11.67850586 4.03609863 -10.73201172 3.57219727 -9.75683594 3.09423828 C-8.9012207 2.68157715 -8.04560547 2.26891602 -7.1640625 1.84375 C-6.05732178 1.30524414 -6.05732178 1.30524414 -4.92822266 0.75585938 C-3 0 -3 0 0 0 Z " fill="#C0AC9D" transform="translate(527,870)"/>
<path d="M0 0 C4.1504112 0.12342493 8.30079929 0.24759928 12.45117188 0.37231445 C13.84667431 0.41416072 15.24218172 0.45584177 16.63769531 0.49731445 C21.13690637 0.63110157 25.63596392 0.76933052 30.13494873 0.91052246 C32.18900246 0.97467198 34.2430829 1.03796832 36.29718018 1.10070801 C53.35952655 1.62480239 70.40530373 2.30931229 87.45306396 3.18634033 C93.97359158 3.52135722 100.49455491 3.84761901 107.015625 4.171875 C108.03439287 4.22260351 108.03439287 4.22260351 109.07374191 4.27435684 C120.22989819 4.82847322 131.38767056 5.33945927 142.546875 5.828125 C143.31571392 5.86181309 144.08455284 5.89550117 144.87668991 5.93021011 C152.40353213 6.25953582 159.93052881 6.58514087 167.45773315 6.90608215 C170.24920876 7.02538364 173.04062738 7.14598601 175.83203888 7.26677704 C177.71818878 7.34784474 179.60442357 7.42693023 181.49066162 7.50592041 C190.00477377 7.87415469 198.49943535 8.40129514 207 9 C206.13389825 16.53794049 204.92509142 24.01528712 203.6875 31.5 C203.50716217 32.59387024 203.50716217 32.59387024 203.32318115 33.70983887 C198.70473862 61.5561788 193.26337175 89.26990371 188 117 C180.63201175 116.42211857 174.01245614 114.25107794 167 112 C164.94600813 111.37514716 162.89027978 110.75597082 160.83276367 110.14282227 C159.29015617 109.6831028 159.29015617 109.6831028 157.71638489 109.21409607 C156.1146064 108.73880211 156.1146064 108.73880211 154.48046875 108.25390625 C153.32580612 107.91122208 152.17114349 107.5685379 150.98149109 107.21546936 C142.54561963 104.72408188 134.08584979 102.32794894 125.61328125 99.96484375 C122.04304701 98.95998487 118.47340954 97.95303926 114.90405273 96.94506836 C112.47767292 96.26437571 110.04921477 95.59105474 107.61889648 94.92456055 C104.0276556 93.93742752 100.44522892 92.92261031 96.86328125 91.90234375 C95.78621414 91.61358871 94.70914703 91.32483368 93.59944153 91.02732849 C86.57891892 88.99069216 82.08490056 86.21970987 77 81 C75.79337865 79.84586375 74.58527265 78.69327553 73.375 77.54296875 C72.24743341 76.42706664 71.12240341 75.30859524 70 74.1875 C69.41605469 73.61580078 68.83210938 73.04410156 68.23046875 72.45507812 C66.77984796 71.00955319 65.38447683 69.50899533 64 68 C64 67.34 64 66.68 64 66 C62.515 65.505 62.515 65.505 61 65 C59.62278748 63.6027832 59.62278748 63.6027832 58.10717773 61.73828125 C52.85064071 55.54945534 47.03509912 49.91149261 41.28515625 44.1875 C40.06182777 42.96604016 38.83872252 41.74435671 37.61582947 40.52246094 C34.42058239 37.3310039 31.22234214 34.14256333 28.0234375 30.95477295 C24.75011567 27.69174138 21.47967726 24.42582256 18.20898438 21.16015625 C11.80878491 14.77063203 5.40541493 8.38429549 -1 2 C-0.67 1.34 -0.34 0.68 0 0 Z " fill="#CC6116" transform="translate(334,609)"/>
<path d="M0 0 C0 3 0 3 -1.62330627 4.9773407 C-2.38384811 5.7282045 -3.14438995 6.4790683 -3.92797852 7.25268555 C-4.78629776 8.10755051 -5.644617 8.96241547 -6.52894592 9.84318542 C-7.46943283 10.76505142 -8.40991974 11.68691742 -9.37890625 12.63671875 C-10.34935417 13.59902484 -11.31906515 14.56207462 -12.28807068 15.52583313 C-14.84857975 18.06919233 -17.41749817 20.60387856 -19.9887085 23.13641357 C-24.08093621 27.16960275 -28.16089438 31.21518653 -32.239851 35.26178932 C-33.65657269 36.66472417 -35.0774504 38.06345822 -36.49842834 39.46208191 C-40.96351312 43.87767353 -45.27368041 48.34214049 -49.3611908 53.10935974 C-54.13403717 58.61563557 -59.2839453 63.79190607 -64.37597656 69.00073242 C-65.78775734 70.45421753 -67.18957794 71.91744624 -68.58105469 73.39038086 C-77.70995379 83.0421326 -84.82894951 89.19110653 -98 92 C-100.41846981 92.63904792 -102.83536544 93.28411007 -105.25 93.9375 C-106.48234375 94.25589844 -107.7146875 94.57429687 -108.984375 94.90234375 C-113.53885702 96.11390891 -118.01471617 97.55639862 -122.5 99 C-129.21896094 101.15773946 -135.95271129 103.09807057 -142.78515625 104.87109375 C-148.2600877 106.31415156 -153.69046085 107.91285949 -159.125 109.5 C-160.68238892 109.95439453 -160.68238892 109.95439453 -162.27124023 110.41796875 C-168.74642397 112.31621428 -175.1946304 114.27666211 -181.609375 116.37109375 C-184 117 -184 117 -188 117 C-188.21092285 115.77410156 -188.4218457 114.54820312 -188.63916016 113.28515625 C-193.78079026 83.36323422 -193.78079026 83.36323422 -199.25 53.5 C-199.49008789 52.22833984 -199.73017578 50.95667969 -199.97753906 49.64648438 C-200.86055315 44.98210677 -201.74701977 40.31842358 -202.64160156 35.65625 C-203.22568492 32.60531694 -203.80115946 29.55287317 -204.375 26.5 C-204.54290039 25.63955078 -204.71080078 24.77910156 -204.88378906 23.89257812 C-205.03299805 23.09271484 -205.18220703 22.29285156 -205.3359375 21.46875 C-205.46532715 20.79263672 -205.5947168 20.11652344 -205.72802734 19.41992188 C-206.1190799 15.94046685 -206.01546385 12.50132548 -206 9 C-164.52077068 6.92048862 -123.03695422 4.96705014 -81.54713273 3.11162746 C-75.51146077 2.84149053 -69.4759218 2.56846198 -63.44040382 2.2949093 C-57.49518097 2.02557027 -51.54987437 1.75813724 -45.60449898 1.49218673 C-42.10788151 1.33574699 -38.61130003 1.17859743 -35.11480331 1.01947975 C-31.27050511 0.84461059 -27.42603565 0.67371644 -23.58154297 0.50317383 C-21.90511719 0.42608688 -21.90511719 0.42608688 -20.19482422 0.34744263 C-13.45824042 0.05261052 -6.74283923 -0.06073477 0 0 Z " fill="#CC6116" transform="translate(866,609)"/>
<path d="M0 0 C0 0.66 0 1.32 0 2 C0.54776218 1.99484627 1.09552437 1.98969254 1.65988541 1.98438263 C14.98857297 1.85898985 28.31726248 1.73380643 41.64595413 1.60884857 C48.09160708 1.54841357 54.53725935 1.48790888 60.98291016 1.42724609 C67.20094401 1.36872805 73.41897955 1.31039155 79.6370163 1.25218201 C82.01171683 1.22991936 84.38641674 1.20759082 86.76111603 1.18519592 C90.08195336 1.15388951 93.40279278 1.1228154 96.72363281 1.09179688 C97.70978073 1.08244614 98.69592865 1.0730954 99.71195984 1.0634613 C101.07067955 1.05084007 101.07067955 1.05084007 102.45684814 1.03796387 C103.24221577 1.03058952 104.02758339 1.02321518 104.83675003 1.01561737 C112.85265537 0.95774733 118.54933437 3.85640449 124.46777344 9.16894531 C128.88347397 14.4458341 128.41762404 22.11056085 128.77099609 28.65576172 C129.02564468 32.37449976 129.45168611 36.05830469 129.92578125 39.75390625 C130.01270737 40.43211929 130.09963348 41.11033234 130.18919373 41.80909729 C130.36899358 43.20695955 130.5491893 44.60477095 130.72976685 46.00253296 C131.1799282 49.53819326 131.59840949 53.07751104 132.015625 56.6171875 C132.09813004 57.31625717 132.18063507 58.01532684 132.26564026 58.73558044 C133.10956252 65.90525946 133.9399356 73.07640784 134.75 80.25 C134.94142578 81.92666748 134.94142578 81.92666748 135.13671875 83.63720703 C135.25144531 84.66958496 135.36617187 85.70196289 135.484375 86.765625 C135.58459961 87.66055664 135.68482422 88.55548828 135.78808594 89.47753906 C135.99983831 91.99807538 136.03749556 94.47189015 136 97 C132 97 132 97 130.55986691 95.71535206 C130.08023274 95.16562575 129.60059858 94.61589945 129.10643005 94.04951477 C123.92781661 89.39429768 117.9300279 90.15339557 111.29711914 90.20776367 C109.91005023 90.19798475 108.52299721 90.18567416 107.13597107 90.17103577 C103.3836025 90.13951379 99.63219975 90.14587138 95.87976384 90.16111541 C92.74113524 90.17028969 89.6026815 90.16054935 86.46406358 90.15077668 C79.05668859 90.1278964 71.64977938 90.1354121 64.24243164 90.1628418 C56.61384852 90.19064165 48.98643943 90.17128856 41.35795504 90.12796611 C34.79544264 90.09213696 28.23329129 90.08365663 21.67069525 90.09735852 C17.75678868 90.10538552 13.84353924 90.10369455 9.92970467 90.07649803 C6.24782753 90.05227343 2.56757768 90.06244864 -1.11418724 90.09848595 C-3.09976023 90.10972279 -5.0854358 90.08667188 -7.07089233 90.06240845 C-13.18612001 90.15596906 -17.0611119 90.39557501 -21.73951721 94.55561829 C-22.33399941 95.1972759 -22.92848162 95.83893351 -23.54097843 96.50003529 C-24.26319411 97.24251782 -24.26319411 97.24251782 -25 98 C-25.66 98 -26.32 98 -27 98 C-27.51662492 86.37361209 -25.97546702 74.90768642 -24.6875 63.375 C-24.45421117 61.26385848 -24.22113926 59.15269299 -23.98828125 57.04150391 C-23.6426142 53.91017243 -23.29619983 50.77893854 -22.94662476 47.64804077 C-22.30438644 41.87349937 -21.70989585 36.09795292 -21.17578125 30.3125 C-21.05823486 29.10932129 -20.94068848 27.90614258 -20.81958008 26.66650391 C-20.61363336 24.5453628 -20.42344249 22.42260342 -20.25268555 20.29833984 C-19.8105402 15.977253 -19.48064158 13.62696079 -16.79296875 10.12109375 C-13.84690112 7.8837305 -10.90120004 5.72489095 -7.8125 3.6875 C-6.76707031 2.99011719 -5.72164062 2.29273438 -4.64453125 1.57421875 C-2 0 -2 0 0 0 Z " fill="#171716" transform="translate(546,857)"/>
<path d="M0 0 C-1.20126854 3.2028425 -2.5013452 5.99278069 -4.42895508 8.81665039 C-4.91697098 9.5369191 -5.40498688 10.25718781 -5.90779114 10.99928284 C-6.70560249 12.16172768 -6.70560249 12.16172768 -7.51953125 13.34765625 C-8.08109421 14.17470566 -8.64265717 15.00175507 -9.22123718 15.85386658 C-10.44033828 17.64891374 -11.66143117 19.44260943 -12.88427734 21.23510742 C-16.20093741 26.09839436 -19.50113275 30.97281729 -22.80078125 35.84765625 C-23.48355133 36.85599518 -24.16632141 37.86433411 -24.86978149 38.90322876 C-31.83732162 49.20935405 -38.67551374 59.59883785 -45.5 70 C-58.34677771 89.56839219 -71.40100837 108.9918199 -84.52407837 128.37573242 C-88.71187449 134.56457598 -92.86962251 140.77268575 -97 147 C-98.98 146.34 -100.96 145.68 -103 145 C-111.97895145 70.24078857 -111.97895145 70.24078857 -114.9375 45.375 C-115.08014786 44.17644379 -115.08014786 44.17644379 -115.22567749 42.95367432 C-115.31709015 42.18537292 -115.40850281 41.41707153 -115.50268555 40.62548828 C-115.59093094 39.88390472 -115.67917633 39.14232117 -115.77009583 38.37826538 C-115.93792396 36.96430417 -116.10509933 35.55026528 -116.27153015 34.13613892 C-116.69164221 30.56851599 -117.1232139 27.0027654 -117.57080078 23.43847656 C-117.71093346 22.30208237 -117.71093346 22.30208237 -117.85389709 21.14273071 C-118.03003628 19.71530259 -118.20974857 18.28830806 -118.39402771 16.86190796 C-118.96508992 12.18702988 -119.23221369 7.69798315 -119 3 C-116.21504231 0.21504231 -113.63726025 0.69276378 -109.90869141 0.68115234 C-108.80993431 0.66608391 -108.80993431 0.66608391 -107.6889801 0.65071106 C-105.24318201 0.61962047 -102.79749749 0.60272275 -100.3515625 0.5859375 C-98.62461469 0.56717997 -96.89767561 0.54760334 -95.17074585 0.5272522 C-90.58473206 0.47567596 -85.99868643 0.43630224 -81.41253662 0.39910889 C-77.78582994 0.36774217 -74.15924284 0.32792231 -70.53262711 0.28753281 C-47.02152506 0.02614438 -23.51239904 -0.05323686 0 0 Z " fill="#CD6116" transform="translate(898,784)"/>
<path d="M0 0 C14.94230866 -0.04669738 29.88461166 -0.08197773 44.82697773 -0.10362434 C51.76480357 -0.11394188 58.7025841 -0.1280113 65.64038086 -0.15087891 C72.33173943 -0.17292373 79.02304113 -0.18455841 85.71443748 -0.18975449 C88.27139211 -0.19345895 90.82834406 -0.2006925 93.3852787 -0.21146011 C96.95783758 -0.22591063 100.53019995 -0.22798063 104.1027832 -0.22705078 C105.16733231 -0.23424133 106.23188141 -0.24143188 107.32868958 -0.24884033 C108.78631714 -0.24471634 108.78631714 -0.24471634 110.27339172 -0.24050903 C111.11867589 -0.24235262 111.96396006 -0.24419621 112.83485889 -0.24609566 C115 0 115 0 118 2 C118.21484375 4.859375 118.21484375 4.859375 117.9375 8.75 C117.88585693 9.47735352 117.83421387 10.20470703 117.78100586 10.95410156 C117.06001742 19.90193807 115.75020279 28.7899706 114.51782227 37.6784668 C113.3592326 46.0781103 112.3705904 54.4635101 111.68383789 62.91503906 C111.30731907 67.38721932 110.7432203 71.78590078 110.03515625 76.21875 C108.94383763 83.10418814 108.23171424 90.00016729 107.5625 96.9375 C106.56904005 106.91376072 105.4339786 116.84816112 104.00219727 126.77124023 C103.17773762 132.50262877 102.53326631 138.23415356 102 144 C100.02 144.66 98.04 145.32 96 146 C80.76434177 123.51899992 65.62004651 100.98422435 50.71560669 78.28204346 C40.14932247 62.19324009 29.4300759 46.21190446 18.62695312 30.28125 C13.5924138 22.85304115 8.56507451 15.420817 3.671875 7.8984375 C2.95612305 6.79935059 2.24037109 5.70026367 1.50292969 4.56787109 C0 2 0 2 0 0 Z " fill="#CD6116" transform="translate(303,785)"/>
<path d="M0 0 C0.33 0 0.66 0 1 0 C1.06850662 0.5834166 1.13701324 1.16683319 1.20759583 1.76792908 C1.93758031 7.98408369 2.66801494 14.20018531 3.39868164 20.41625977 C3.66929892 22.71898128 3.93981107 25.02171515 4.21020508 27.32446289 C6.25762925 44.75997637 8.33490473 62.19170836 10.43661499 79.62075806 C11.36681743 87.33474008 12.29393568 95.04908134 13.21704102 102.76391602 C13.53477862 105.41381795 13.85353485 108.06357253 14.17407227 110.71313477 C14.64469423 114.60386464 15.10961634 118.49526528 15.57421875 122.38671875 C15.71792404 123.56787766 15.86162933 124.74903656 16.00968933 125.96598816 C16.14015152 127.06606705 16.27061371 128.16614594 16.4050293 129.29956055 C16.57798775 130.73866035 16.57798775 130.73866035 16.75444031 132.20683289 C17.0133377 135.15171229 17.04155989 138.04529157 17 141 C11.09667258 139.28523278 5.76441359 136.54851331 0.27734375 133.828125 C-0.76768814 133.31392502 -1.81272003 132.79972504 -2.88941956 132.26994324 C-5.12388671 131.1700386 -7.35752044 130.06843953 -9.59039307 128.96530151 C-15.4094734 126.0905406 -21.2345579 123.22798528 -27.05859375 120.36328125 C-28.76849487 119.52151085 -28.76849487 119.52151085 -30.51293945 118.66273499 C-38.86651095 114.55166337 -47.23506438 110.47376905 -55.625 106.4375 C-56.70515381 105.91736328 -57.78530762 105.39722656 -58.89819336 104.86132812 C-61.07390892 103.81398479 -63.24977209 102.76694804 -65.42578125 101.72021484 C-71.9101974 98.59936811 -78.39178949 95.47271729 -84.87030029 92.33963013 C-86.35853423 91.62041039 -87.84717384 90.90202938 -89.33624268 90.18453979 C-91.39442892 89.19278206 -93.45126544 88.19827635 -95.5078125 87.203125 C-96.69004395 86.63239258 -97.87227539 86.06166016 -99.09033203 85.47363281 C-102 84 -102 84 -105 82 C-103.67977796 80.98444458 -102.35955152 79.96889487 -101.03930664 78.95336914 C-99.87045175 78.05421186 -98.70167135 77.15495776 -97.53295898 76.25561523 C-94.60178416 74.00023362 -91.66974836 71.74600904 -88.734375 69.49609375 C-82.65349057 64.83058759 -76.60293407 60.12992006 -70.58227539 55.38696289 C-65.73654902 51.57187477 -60.8706459 47.78320531 -56 44 C-50.65509177 39.84789628 -45.3176181 35.68700304 -40 31.5 C-34.68238112 27.31299635 -29.34482109 23.15221682 -24 19 C-18.30367694 14.57370868 -12.61259123 10.14099374 -6.9375 5.6875 C-6.34775391 5.22537109 -5.75800781 4.76324219 -5.15039062 4.28710938 C-2.48762986 2.24463063 -2.48762986 2.24463063 0 0 Z " fill="#E3761B" transform="translate(778,787)"/>
<path d="M0 0 C3.82479878 1.66295599 6.90025267 4.15842224 10.125 6.75 C11.37718144 7.74532371 12.6298078 8.74008787 13.8828125 9.734375 C14.54829102 10.26353516 15.21376953 10.79269531 15.89941406 11.33789062 C19.58011949 14.25028516 23.29154221 17.123088 27 20 C32.90541249 24.58689674 38.79693055 29.19057382 44.671875 33.81640625 C49.43374633 37.56255732 54.21531987 41.28304211 59 45 C64.34487741 49.1521447 69.68233369 53.31305712 75 57.5 C80.52762099 61.851427 86.07272268 66.1800791 91.625 70.5 C92.39585937 71.10005859 93.16671875 71.70011719 93.9609375 72.31835938 C94.68796875 72.88361328 95.415 73.44886719 96.1640625 74.03125 C96.80811035 74.53205078 97.4521582 75.03285156 98.11572266 75.54882812 C100.06458654 77.04974117 102.02906694 78.52822419 104 80 C103 83 103 83 101.15600586 84.15991211 C100.35042236 84.52866455 99.54483887 84.89741699 98.71484375 85.27734375 C97.80412109 85.70208984 96.89339844 86.12683594 95.95507812 86.56445312 C94.95927734 87.01755859 93.96347656 87.47066406 92.9375 87.9375 C90.82067344 88.92376378 88.70481663 89.91211114 86.58984375 90.90234375 C85.49655762 91.41265137 84.40327148 91.92295898 83.27685547 92.44873047 C77.25994355 95.29714787 71.32676669 98.31218489 65.39038086 101.32397461 C58.73704318 104.68039146 52.02795899 107.90787308 45.30078125 111.11328125 C37.02211204 115.0586219 28.77085922 119.05529029 20.54296875 123.10546875 C19.52324982 123.6070047 18.50353088 124.10854065 17.45291138 124.62527466 C13.29003445 126.67352925 9.12781398 128.72308315 4.96801758 130.77758789 C1.8697129 132.30705311 -1.23094429 133.83165454 -4.33203125 135.35546875 C-5.27762405 135.82405807 -6.22321686 136.2926474 -7.19746399 136.7754364 C-8.49734505 137.41289543 -8.49734505 137.41289543 -9.82348633 138.06323242 C-10.58462234 138.4386467 -11.34575836 138.81406097 -12.12995911 139.20085144 C-14 140 -14 140 -16 140 C-16.12397608 133.77020192 -15.69869143 127.96011635 -14.75 121.8125 C-12.95819196 109.51363455 -11.70490702 97.16610321 -10.44628906 84.80395508 C-9.56421354 76.1702206 -8.59768937 67.55698054 -7.49780273 58.94824219 C-6.98497782 54.88085399 -6.50381342 50.81093323 -6.03515625 46.73828125 C-5.87468685 45.34749206 -5.71420501 43.95670431 -5.55371094 42.56591797 C-5.4332843 41.52198883 -5.4332843 41.52198883 -5.3104248 40.45697021 C-3.7475548 26.93864487 -2.04157269 13.45582003 0 0 Z " fill="#E3761B" transform="translate(421,788)"/>
<path d="M0 0 C0.48151462 9.83996088 -0.81090172 19.51036022 -1.96621704 29.25976562 C-2.31825871 32.23618841 -2.66040826 35.21362264 -3.00073242 38.19140625 C-4.83778809 54.15689444 -4.83778809 54.15689444 -6 61.95703125 C-8.61151261 79.60647899 -8.28980387 97.20158356 -8 115 C-20.26222346 109.58896183 -32.38187157 103.92735677 -44.44262695 98.08129883 C-52.59170448 94.13911498 -60.78076754 90.29353603 -69 86.5 C-78.53663757 82.09472063 -88.03601388 77.62117922 -97.5 73.0625 C-98.57894531 72.54300781 -99.65789062 72.02351562 -100.76953125 71.48828125 C-107.87754743 68.05377281 -114.94769907 64.54742081 -122 61 C-122 60.01 -122 59.02 -122 58 C-118.15013489 56.06228046 -114.29869826 54.1277242 -110.44604492 52.19555664 C-109.14780314 51.54398981 -107.84992576 50.89169621 -106.55249023 50.23852539 C-97.09452827 45.4780055 -87.57153118 40.86648121 -78.01274109 36.31196594 C-66.04555354 30.60336278 -54.1507362 24.7478507 -42.25048828 18.90136719 C-35.50607464 15.58905454 -28.75670689 12.28716662 -22 9 C-21.0716333 8.54757935 -20.1432666 8.09515869 -19.18676758 7.62902832 C-16.53920232 6.34220914 -13.88762502 5.06411163 -11.234375 3.7890625 C-10.4428302 3.40358246 -9.6512854 3.01810242 -8.83575439 2.62094116 C-3.34542433 0 -3.34542433 0 0 0 Z " fill="#D6C0B2" transform="translate(527,870)"/>
<path d="M0 0 C5.7187728 0.54349356 10.14313104 2.77860661 15.19921875 5.3125 C16.09421585 5.75309753 16.98921295 6.19369507 17.91133118 6.64764404 C20.84027284 8.09135783 23.76378264 9.54573971 26.6875 11 C28.73069354 12.00900163 30.77431791 13.01713129 32.81835938 14.02441406 C36.94202037 16.05702081 41.06408469 18.09281075 45.18505859 20.13085938 C52.41058017 23.70054338 59.65771884 27.22498379 66.91088867 30.73806763 C70.38552804 32.42112779 73.85867439 34.10726393 77.33203125 35.79296875 C78.01999786 36.12675034 78.70796448 36.46053192 79.41677856 36.8044281 C88.51039106 41.21684856 97.59874789 45.6400794 106.6875 50.0625 C108.33398418 50.86360718 109.98046854 51.66471396 111.62695312 52.46582031 C115.41802478 54.31043175 119.209033 56.15517349 123 58 C122.84106445 59.81274414 122.84106445 59.81274414 122 62 C119.66870117 63.53295898 119.66870117 63.53295898 116.54296875 64.99609375 C115.38216797 65.5478125 114.22136719 66.09953125 113.02539062 66.66796875 C111.74622568 67.25809855 110.46692503 67.84793427 109.1875 68.4375 C107.8672623 69.05867257 106.54760828 69.68108705 105.22851562 70.3046875 C101.82008049 71.91130262 98.40374114 73.50020362 94.98382568 75.08221436 C93.10498873 75.95142862 91.22729768 76.8230579 89.35009766 77.69580078 C84.74581912 79.83578124 80.1406083 81.97363949 75.53051758 84.10107422 C67.0999599 87.99772384 58.72883528 92.00510638 50.375 96.0625 C40.70681547 100.75661584 31.00634749 105.36744032 21.25 109.875 C20.13028809 110.39328369 19.01057617 110.91156738 17.85693359 111.44555664 C10.12786579 115 10.12786579 115 9 115 C9.0314209 113.63911255 9.0314209 113.63911255 9.06347656 112.25073242 C9.49120694 90.65440907 8.44189474 69.77257771 5.57763672 48.36962891 C4.67945141 41.63750172 3.88224828 34.89295093 3.0723877 28.14974976 C2.82125376 26.0724097 2.56533491 23.99572194 2.30761719 21.91918945 C1.40767645 14.62126137 0.60468455 7.3285863 0 0 Z " fill="#D6C0B2" transform="translate(672,870)"/>
<path d="M0 0 C6.8388835 5.6091057 13.00966724 11.86424267 19.25 18.1171875 C20.43377364 19.30028611 21.61769557 20.48323637 22.80175781 21.66604614 C25.27441403 24.13723417 27.74526855 26.61020573 30.21484375 29.08447266 C33.3616587 32.23697805 36.51293427 35.38498015 39.66558838 38.53164482 C42.10909939 40.97152108 44.55019749 43.41380033 46.99060059 45.85678482 C48.15074525 47.01759104 49.31161783 48.17767027 50.4732666 49.33697128 C56.02698468 54.8819253 61.52171227 60.4293696 66.6242981 66.39968872 C68.3219474 68.37451141 70.11559477 70.22961606 71.96484375 72.0625 C72.61904297 72.71347656 73.27324219 73.36445312 73.94726562 74.03515625 C74.60404297 74.68355469 75.26082031 75.33195313 75.9375 76 C76.62134766 76.67933594 77.30519531 77.35867188 78.00976562 78.05859375 C79.67087159 79.70808359 81.33428513 81.3551668 83 83 C82.01 83.495 82.01 83.495 81 84 C81.02505615 84.63797012 81.0501123 85.27594025 81.07592773 85.9332428 C81.34081061 92.70033198 81.59932913 99.46764494 81.85449219 106.23510742 C81.94993418 108.74558401 82.04688736 111.25600369 82.14550781 113.76635742 C82.77621448 129.85259536 83.15463675 145.9009758 83 162 C80.39873556 158.78057458 78.60360689 155.42337721 76.77734375 151.71484375 C76.47236465 151.09968399 76.16738556 150.48452423 75.85316467 149.85072327 C74.8774239 147.88152579 73.90703146 145.90976107 72.9375 143.9375 C68.40071255 134.72830499 63.75770268 125.58962284 58.95542908 116.51573181 C54.21801215 107.55023332 49.6173057 98.51596256 45.01699829 89.47955322 C42.39315257 84.32602865 39.76475113 79.174828 37.13671875 74.0234375 C36.61321335 72.99709198 36.08970795 71.97074646 35.55033875 70.91329956 C30.82032267 61.64232932 26.07257984 52.38056534 21.3125 43.125 C20.76955292 42.06854782 20.76955292 42.06854782 20.21563721 40.99075317 C16.50324597 33.76846286 12.77496807 26.55513177 9.00390625 19.36328125 C8.53544029 18.46848053 8.53544029 18.46848053 8.05751038 17.55560303 C6.61169866 14.79418106 5.1620296 12.03496322 3.7043457 9.27978516 C3.211521 8.34054199 2.71869629 7.40129883 2.2109375 6.43359375 C1.78087402 5.61947021 1.35081055 4.80534668 0.90771484 3.96655273 C0 2 0 2 0 0 Z " fill="#E4751E" transform="translate(334,612)"/>
<path d="M0 0 C0.495 0.99 0.495 0.99 1 2 C-0.17724609 4.73266602 -0.17724609 4.73266602 -2.0234375 8.25390625 C-2.35570343 8.8933165 -2.68796936 9.53272675 -3.03030396 10.19151306 C-4.1379199 12.31906359 -5.25655028 14.44062763 -6.375 16.5625 C-7.15513964 18.05685199 -7.93442413 19.55165071 -8.71289062 21.046875 C-10.33358885 24.15816326 -11.9579814 27.26748038 -13.58496094 30.37548828 C-16.90527027 36.72487208 -20.18088575 43.09713251 -23.45617676 49.46981812 C-25.2159502 52.89248589 -26.97928704 56.31331712 -28.7421875 59.734375 C-31.24166372 64.58598453 -33.74052325 69.43791121 -36.23881531 74.29013062 C-48.47531887 98.05598707 -48.47531887 98.05598707 -53.83984375 108.4296875 C-54.14996902 109.02940369 -54.4600943 109.62911987 -54.77961731 110.24700928 C-56.31104279 113.20773352 -57.84388248 116.16771216 -59.37817383 119.12695312 C-62.36702114 124.89432886 -65.34470073 130.66683258 -68.29493713 136.45407104 C-69.77238439 139.35143203 -71.25400079 142.24665229 -72.73580933 145.14178467 C-73.44947274 146.53917408 -74.1610268 147.93764292 -74.87039185 149.33721924 C-75.85238925 151.27440183 -76.84142123 153.20783606 -77.83203125 155.140625 C-78.67858276 156.80399902 -78.67858276 156.80399902 -79.54223633 158.50097656 C-81 161 -81 161 -83 162 C-82.94362366 160.70786842 -82.94362366 160.70786842 -82.8861084 159.38963318 C-82.53140969 151.25384895 -82.17816843 143.11800301 -81.82654572 134.98208523 C-81.64574187 130.7997892 -81.46438344 126.61751879 -81.28173828 122.43530273 C-81.10535017 118.39588544 -80.93044409 114.35640641 -80.75654602 110.31688118 C-80.69009183 108.77917271 -80.62311234 107.24148684 -80.55558777 105.703825 C-80.46077899 103.54276131 -80.36787349 101.38162329 -80.27539062 99.22045898 C-80.22209595 97.99246078 -80.16880127 96.76446259 -80.1138916 95.49925232 C-80.07630737 94.34449905 -80.03872314 93.18974579 -80 92 C-79.9296051 90.10599205 -79.9296051 90.10599205 -79.85778809 88.17372131 C-79.64670013 84.90346998 -79.64670013 84.90346998 -82 83 C-81.55200546 82.55422607 -81.10401093 82.10845215 -80.6424408 81.64916992 C-75.9506797 76.97965276 -71.26253799 72.30652382 -66.57641602 67.63134766 C-64.83058413 65.89052279 -63.08385302 64.15059922 -61.33618164 62.41162109 C-58.8141565 59.90182134 -56.29545804 57.38872283 -53.77734375 54.875 C-53.00414291 54.10696045 -52.23094208 53.3389209 -51.43431091 52.54760742 C-48.01164282 49.12528857 -44.67272971 45.68193701 -41.51367188 42.01367188 C-37.55997163 37.42500044 -33.29904268 33.17350424 -29.00390625 28.90625 C-28.17036118 28.07411987 -27.3368161 27.24198975 -26.47801208 26.38464355 C-23.84186738 23.75405065 -21.20224895 21.12697559 -18.5625 18.5 C-16.76344021 16.70596145 -14.9646098 14.91169285 -13.16601562 13.1171875 C-8.77999188 8.74212875 -4.39111858 4.36994488 0 0 Z " fill="#E4751E" transform="translate(865,612)"/>
<path d="M0 0 C0.33 0 0.66 0 1 0 C1.13986328 0.86012695 1.27972656 1.72025391 1.42382812 2.60644531 C5.2233413 25.88609921 9.33385421 49.09959706 13.59133911 72.29956055 C15.0850686 80.44542695 16.54852897 88.59650997 18 96.75 C18.20761963 97.91595703 18.41523926 99.08191406 18.62915039 100.28320312 C19.08672048 102.85535928 19.54375933 105.42760777 20 108 C18.515 108.99 18.515 108.99 17 110 C16.27159568 112.45312865 15.73155666 114.76052635 15.27001953 117.26586914 C15.12155579 118.01604309 14.97309204 118.76621704 14.82012939 119.53912354 C14.32912853 122.03564081 13.85603036 124.53521239 13.3828125 127.03515625 C13.04146517 128.78866365 12.6989882 130.5419515 12.35543823 132.29502869 C11.44873359 136.9374785 10.55700887 141.58268408 9.66845703 146.2286377 C8.78095066 150.85654883 7.8803997 155.48191366 6.98046875 160.10742188 C5.7682463 166.3434119 4.55996588 172.58013595 3.35741806 178.81799889 C0.96512869 191.22421923 -1.49167662 203.61667535 -4 216 C-4.33 216 -4.66 216 -5 216 C-5.27294071 70.04789331 -5.27294071 70.04789331 0 0 Z " fill="#E4751E" transform="translate(659,618)"/>
<path d="M0 0 C1.41943359 2.33129883 1.41943359 2.33129883 2.8984375 5.45703125 C3.73266235 7.20149536 3.73266235 7.20149536 4.58374023 8.98120117 C5.18127519 10.25809106 5.77835114 11.53519583 6.375 12.8125 C6.99027628 14.11271305 7.60625165 15.4125955 8.22290039 16.7121582 C9.50640038 19.42265468 10.78281161 22.13634097 12.05419922 24.85253906 C13.65672643 28.27446931 15.27609348 31.68807198 16.90185547 35.09901428 C18.12791952 37.67471012 19.34638808 40.25394125 20.56256104 42.83432007 C21.14555087 44.06913198 21.73079626 45.30288152 22.31829834 46.53555298 C23.13531265 48.25311013 23.9410015 49.97604104 24.74609375 51.69921875 C25.20685303 52.67721436 25.6676123 53.65520996 26.14233398 54.6628418 C26.42536377 55.434104 26.70839355 56.20536621 27 57 C26.505 57.99 26.505 57.99 26 59 C24.53125 58.57161458 23.0625 58.14322917 21.59375 57.71484375 C20.63654053 57.43568115 19.67933105 57.15651855 18.69311523 56.86889648 C16.51809701 56.23446767 14.34313167 55.59985755 12.16821289 54.96508789 C7.01825346 53.46226455 1.86801269 51.96053469 -3.28515625 50.46875 C-25.22773333 44.107212 -47.10844359 37.53440893 -69 31 C-69 30.34 -69 29.68 -69 29 C-68.06655762 28.58862793 -67.13311523 28.17725586 -66.17138672 27.75341797 C-61.73748258 25.7979531 -57.30612581 23.83675068 -52.875 21.875 C-52.06999054 21.51906769 -51.26498108 21.16313538 -50.43557739 20.79641724 C-41.59200946 16.88296953 -32.77229869 12.93162191 -24.03515625 8.78515625 C-23.34184204 8.45688843 -22.64852783 8.12862061 -21.9342041 7.79040527 C-18.65160624 6.23388479 -15.37546976 4.66541991 -12.10693359 3.07958984 C-10.94629395 2.52609863 -9.7856543 1.97260742 -8.58984375 1.40234375 C-7.57784912 0.91241943 -6.56585449 0.42249512 -5.52319336 -0.08227539 C-3 -1 -3 -1 0 0 Z " fill="#263446" transform="translate(492,667)"/>
<path d="M0 0 C6.30842382 1.95497757 12.24689824 4.34886066 18.21484375 7.16796875 C19.06945694 7.56647537 19.92407013 7.96498199 20.80458069 8.37556458 C23.51773364 9.64160794 26.22776138 10.91416758 28.9375 12.1875 C32.48716796 13.85004362 36.03816665 15.50972197 39.58984375 17.16796875 C40.45467377 17.57216034 41.31950378 17.97635193 42.21054077 18.39279175 C50.75688391 22.37550597 59.36829203 26.20653079 68 30 C68 30.66 68 31.32 68 32 C67.37246826 32.18062988 66.74493652 32.36125977 66.09838867 32.54736328 C55.34188212 35.64920313 44.59618369 38.76236744 33.9375 42.1875 C27.40571162 44.2814388 20.85246615 46.14948274 14.2109375 47.87109375 C5.68120238 50.11876565 -2.76011868 52.70377497 -11.22314453 55.18798828 C-16.80717258 56.82087709 -22.40265754 58.41342934 -28 60 C-26.67790734 55.77921624 -25.07729793 51.88281319 -23.12890625 47.9140625 C-22.55938232 46.74649414 -21.9898584 45.57892578 -21.40307617 44.37597656 C-21.10259369 43.76371216 -20.80211121 43.15144775 -20.49252319 42.52062988 C-18.91078292 39.29663057 -17.34089915 36.06689882 -15.7734375 32.8359375 C-15.45644394 32.18254395 -15.13945038 31.52915039 -14.81285095 30.85595703 C-11.18109306 23.3442896 -7.72047537 15.756127 -4.28930664 8.15087891 C-3.86770264 7.21937012 -3.44609863 6.28786133 -3.01171875 5.328125 C-2.64522217 4.5124707 -2.27872559 3.69681641 -1.90112305 2.85644531 C-1 1 -1 1 0 0 Z " fill="#243446" transform="translate(709,666)"/>
</svg>
